<svg width="1024" height="350" viewBox="0 0 1024 350" fill="none" xmlns="http://www.w3.org/2000/svg">
<rect width="1024" height="350" rx="10" fill="#0C0C0C"/>
<g filter="url(#filter0_d_3_2)">
<path d="M321 204H739V211H321V204Z" fill="url(#paint0_linear_3_2)"/>
</g>
<path d="M327.6 166.25C326.5 166.25 325.542 166.042 324.725 165.625C323.925 165.208 323.3 164.608 322.85 163.825C322.417 163.025 322.2 162.083 322.2 161V152.75C322.2 151.65 322.417 150.708 322.85 149.925C323.3 149.142 323.925 148.542 324.725 148.125C325.542 147.708 326.5 147.5 327.6 147.5C328.7 147.5 329.65 147.717 330.45 148.15C331.25 148.567 331.867 149.167 332.3 149.95C332.733 150.733 332.95 151.667 332.95 152.75H330.7C330.7 151.717 330.425 150.925 329.875 150.375C329.342 149.808 328.583 149.525 327.6 149.525C326.617 149.525 325.842 149.8 325.275 150.35C324.725 150.9 324.45 151.692 324.45 152.725V161C324.45 162.033 324.725 162.833 325.275 163.4C325.842 163.967 326.617 164.25 327.6 164.25C328.583 164.25 329.342 163.967 329.875 163.4C330.425 162.833 330.7 162.033 330.7 161V158.75H327V156.7H332.95V161C332.95 162.067 332.733 163 332.3 163.8C331.867 164.583 331.25 165.192 330.45 165.625C329.65 166.042 328.7 166.25 327.6 166.25ZM342.49 166.2C341.39 166.2 340.44 165.992 339.64 165.575C338.84 165.158 338.215 164.558 337.765 163.775C337.332 162.975 337.115 162.033 337.115 160.95V157.3C337.115 156.2 337.332 155.258 337.765 154.475C338.215 153.692 338.84 153.092 339.64 152.675C340.44 152.258 341.39 152.05 342.49 152.05C343.59 152.05 344.54 152.258 345.34 152.675C346.14 153.092 346.757 153.692 347.19 154.475C347.64 155.258 347.865 156.192 347.865 157.275V160.95C347.865 162.033 347.64 162.975 347.19 163.775C346.757 164.558 346.14 165.158 345.34 165.575C344.54 165.992 343.59 166.2 342.49 166.2ZM342.49 164.2C343.474 164.2 344.24 163.925 344.79 163.375C345.34 162.825 345.615 162.017 345.615 160.95V157.3C345.615 156.233 345.34 155.425 344.79 154.875C344.24 154.325 343.474 154.05 342.49 154.05C341.524 154.05 340.757 154.325 340.19 154.875C339.64 155.425 339.365 156.233 339.365 157.3V160.95C339.365 162.017 339.64 162.825 340.19 163.375C340.757 163.925 341.524 164.2 342.49 164.2ZM357.48 166.2C356.38 166.2 355.43 165.992 354.63 165.575C353.83 165.158 353.205 164.558 352.755 163.775C352.322 162.975 352.105 162.033 352.105 160.95V157.3C352.105 156.2 352.322 155.258 352.755 154.475C353.205 153.692 353.83 153.092 354.63 152.675C355.43 152.258 356.38 152.05 357.48 152.05C358.58 152.05 359.53 152.258 360.33 152.675C361.13 153.092 361.747 153.692 362.18 154.475C362.63 155.258 362.855 156.192 362.855 157.275V160.95C362.855 162.033 362.63 162.975 362.18 163.775C361.747 164.558 361.13 165.158 360.33 165.575C359.53 165.992 358.58 166.2 357.48 166.2ZM357.48 164.2C358.464 164.2 359.23 163.925 359.78 163.375C360.33 162.825 360.605 162.017 360.605 160.95V157.3C360.605 156.233 360.33 155.425 359.78 154.875C359.23 154.325 358.464 154.05 357.48 154.05C356.514 154.05 355.747 154.325 355.18 154.875C354.63 155.425 354.355 156.233 354.355 157.3V160.95C354.355 162.017 354.63 162.825 355.18 163.375C355.747 163.925 356.514 164.2 357.48 164.2ZM371.671 166.25C370.304 166.25 369.196 165.792 368.346 164.875C367.512 163.958 367.096 162.717 367.096 161.15V157.125C367.096 155.542 367.512 154.292 368.346 153.375C369.179 152.458 370.287 152 371.671 152C372.804 152 373.712 152.308 374.396 152.925C375.079 153.542 375.421 154.367 375.421 155.4L374.971 154.875H375.471L375.421 151.75V147.75H377.671V166H375.421V163.375H374.971L375.421 162.85C375.421 163.9 375.079 164.733 374.396 165.35C373.712 165.95 372.804 166.25 371.671 166.25ZM372.421 164.3C373.354 164.3 374.087 164.008 374.621 163.425C375.154 162.842 375.421 162.033 375.421 161V157.25C375.421 156.217 375.154 155.408 374.621 154.825C374.087 154.242 373.354 153.95 372.421 153.95C371.471 153.95 370.721 154.233 370.171 154.8C369.621 155.367 369.346 156.183 369.346 157.25V161C369.346 162.067 369.621 162.883 370.171 163.45C370.721 164.017 371.471 164.3 372.421 164.3ZM396.201 166L400.951 147.75H403.976L408.701 166H406.426L405.226 161.15H399.701L398.501 166H396.201ZM400.151 159.25H404.751L403.351 153.625C403.085 152.558 402.876 151.667 402.726 150.95C402.576 150.233 402.485 149.767 402.451 149.55C402.418 149.767 402.326 150.233 402.176 150.95C402.026 151.667 401.818 152.55 401.551 153.6L400.151 159.25ZM415.441 166V155.675H411.441V153.625H415.441V151.25C415.441 150.167 415.783 149.317 416.466 148.7C417.15 148.067 418.091 147.75 419.291 147.75H423.316V149.8H419.291C418.775 149.8 418.375 149.925 418.091 150.175C417.825 150.408 417.691 150.767 417.691 151.25V153.625H423.316V155.675H417.691V166H415.441ZM433.932 166C432.748 166 431.823 165.683 431.157 165.05C430.507 164.417 430.182 163.525 430.182 162.375V154.3H426.307V152.25H430.182V148.375H432.432V152.25H437.932V154.3H432.432V162.375C432.432 163.425 432.932 163.95 433.932 163.95H437.682V166H433.932ZM447.422 166.25C446.339 166.25 445.389 166.033 444.572 165.6C443.772 165.167 443.147 164.558 442.697 163.775C442.264 162.975 442.047 162.05 442.047 161V157.25C442.047 156.183 442.264 155.258 442.697 154.475C443.147 153.692 443.772 153.083 444.572 152.65C445.389 152.217 446.339 152 447.422 152C448.505 152 449.447 152.217 450.247 152.65C451.064 153.083 451.689 153.692 452.122 154.475C452.572 155.258 452.797 156.183 452.797 157.25V159.675H444.247V161C444.247 162.083 444.522 162.917 445.072 163.5C445.622 164.067 446.405 164.35 447.422 164.35C448.289 164.35 448.989 164.2 449.522 163.9C450.055 163.583 450.38 163.117 450.497 162.5H452.747C452.597 163.65 452.03 164.567 451.047 165.25C450.08 165.917 448.872 166.25 447.422 166.25ZM450.597 158.175V157.25C450.597 156.167 450.322 155.333 449.772 154.75C449.239 154.167 448.455 153.875 447.422 153.875C446.405 153.875 445.622 154.167 445.072 154.75C444.522 155.333 444.247 156.167 444.247 157.25V157.975H450.772L450.597 158.175ZM457.687 166V152.25H459.887V154.875H460.412L459.687 156.5C459.687 155.017 460.004 153.9 460.637 153.15C461.287 152.383 462.245 152 463.512 152C464.962 152 466.112 152.458 466.962 153.375C467.829 154.275 468.262 155.5 468.262 157.05V157.875H466.012V157.25C466.012 156.167 465.745 155.342 465.212 154.775C464.695 154.192 463.954 153.9 462.987 153.9C462.037 153.9 461.287 154.192 460.737 154.775C460.204 155.358 459.937 156.183 459.937 157.25V166H457.687ZM472.202 166V152.25H474.452V154.875H474.927L474.452 155.4C474.452 154.317 474.777 153.483 475.427 152.9C476.077 152.3 476.977 152 478.127 152C479.511 152 480.611 152.425 481.427 153.275C482.244 154.125 482.652 155.283 482.652 156.75V166H480.402V157C480.402 156.017 480.136 155.267 479.602 154.75C479.086 154.217 478.377 153.95 477.477 153.95C476.544 153.95 475.802 154.233 475.252 154.8C474.719 155.367 474.452 156.183 474.452 157.25V166H472.202ZM492.393 166.2C491.293 166.2 490.343 165.992 489.543 165.575C488.743 165.158 488.118 164.558 487.668 163.775C487.234 162.975 487.018 162.033 487.018 160.95V157.3C487.018 156.2 487.234 155.258 487.668 154.475C488.118 153.692 488.743 153.092 489.543 152.675C490.343 152.258 491.293 152.05 492.393 152.05C493.493 152.05 494.443 152.258 495.243 152.675C496.043 153.092 496.659 153.692 497.093 154.475C497.543 155.258 497.768 156.192 497.768 157.275V160.95C497.768 162.033 497.543 162.975 497.093 163.775C496.659 164.558 496.043 165.158 495.243 165.575C494.443 165.992 493.493 166.2 492.393 166.2ZM492.393 164.2C493.376 164.2 494.143 163.925 494.693 163.375C495.243 162.825 495.518 162.017 495.518 160.95V157.3C495.518 156.233 495.243 155.425 494.693 154.875C494.143 154.325 493.376 154.05 492.393 154.05C491.426 154.05 490.659 154.325 490.093 154.875C489.543 155.425 489.268 156.233 489.268 157.3V160.95C489.268 162.017 489.543 162.825 490.093 163.375C490.659 163.925 491.426 164.2 492.393 164.2ZM507.383 166.2C506.283 166.2 505.333 165.992 504.533 165.575C503.733 165.158 503.108 164.558 502.658 163.775C502.224 162.975 502.008 162.033 502.008 160.95V157.3C502.008 156.2 502.224 155.258 502.658 154.475C503.108 153.692 503.733 153.092 504.533 152.675C505.333 152.258 506.283 152.05 507.383 152.05C508.483 152.05 509.433 152.258 510.233 152.675C511.033 153.092 511.649 153.692 512.083 154.475C512.533 155.258 512.758 156.192 512.758 157.275V160.95C512.758 162.033 512.533 162.975 512.083 163.775C511.649 164.558 511.033 165.158 510.233 165.575C509.433 165.992 508.483 166.2 507.383 166.2ZM507.383 164.2C508.366 164.2 509.133 163.925 509.683 163.375C510.233 162.825 510.508 162.017 510.508 160.95V157.3C510.508 156.233 510.233 155.425 509.683 154.875C509.133 154.325 508.366 154.05 507.383 154.05C506.416 154.05 505.649 154.325 505.083 154.875C504.533 155.425 504.258 156.233 504.258 157.3V160.95C504.258 162.017 504.533 162.825 505.083 163.375C505.649 163.925 506.416 164.2 507.383 164.2ZM517.173 166V152.25H519.423V154.875H519.898L519.423 155.4C519.423 154.317 519.748 153.483 520.398 152.9C521.048 152.3 521.948 152 523.098 152C524.481 152 525.581 152.425 526.398 153.275C527.215 154.125 527.623 155.283 527.623 156.75V166H525.373V157C525.373 156.017 525.106 155.267 524.573 154.75C524.056 154.217 523.348 153.95 522.448 153.95C521.515 153.95 520.773 154.233 520.223 154.8C519.69 155.367 519.423 156.183 519.423 157.25V166H517.173ZM544.854 158.75V156.75H559.854V158.75H544.854Z" fill="#A0A0A0"/>
<path d="M522 177H584V196H522V177Z" fill="#9D7B7D"/>
<path d="M321.38 192V181.05H322.73V183.75V185.325H323.015L322.73 185.64C322.73 184.99 322.925 184.49 323.315 184.14C323.705 183.78 324.245 183.6 324.935 183.6C325.765 183.6 326.425 183.855 326.915 184.365C327.405 184.875 327.65 185.57 327.65 186.45V192H326.3V186.6C326.3 186.01 326.14 185.555 325.82 185.235C325.51 184.905 325.085 184.74 324.545 184.74C323.985 184.74 323.54 184.915 323.21 185.265C322.89 185.615 322.73 186.11 322.73 186.75V192H321.38ZM332.774 192.15C331.904 192.15 331.219 191.93 330.719 191.49C330.219 191.04 329.969 190.435 329.969 189.675C329.969 188.905 330.219 188.3 330.719 187.86C331.219 187.42 331.894 187.2 332.744 187.2H335.294V186.375C335.294 185.865 335.139 185.475 334.829 185.205C334.529 184.925 334.099 184.785 333.539 184.785C333.049 184.785 332.639 184.89 332.309 185.1C331.979 185.3 331.789 185.575 331.739 185.925H330.389C330.479 185.215 330.814 184.65 331.394 184.23C331.974 183.81 332.699 183.6 333.569 183.6C334.519 183.6 335.269 183.845 335.819 184.335C336.369 184.825 336.644 185.49 336.644 186.33V192H335.324V190.425H335.099L335.324 190.2C335.324 190.8 335.089 191.275 334.619 191.625C334.159 191.975 333.544 192.15 332.774 192.15ZM333.104 191.085C333.744 191.085 334.269 190.925 334.679 190.605C335.089 190.285 335.294 189.875 335.294 189.375V188.205H332.774C332.324 188.205 331.969 188.33 331.709 188.58C331.449 188.83 331.319 189.17 331.319 189.6C331.319 190.06 331.474 190.425 331.784 190.695C332.104 190.955 332.544 191.085 333.104 191.085ZM341.573 192L338.813 183.75H340.193L342.023 189.3C342.133 189.63 342.233 189.95 342.323 190.26C342.413 190.56 342.478 190.795 342.518 190.965C342.568 190.795 342.638 190.56 342.728 190.26C342.818 189.95 342.913 189.63 343.013 189.3L344.798 183.75H346.163L343.403 192H341.573ZM351.482 192.15C350.832 192.15 350.262 192.02 349.772 191.76C349.292 191.5 348.917 191.135 348.647 190.665C348.387 190.185 348.257 189.63 348.257 189V186.75C348.257 186.11 348.387 185.555 348.647 185.085C348.917 184.615 349.292 184.25 349.772 183.99C350.262 183.73 350.832 183.6 351.482 183.6C352.132 183.6 352.697 183.73 353.177 183.99C353.667 184.25 354.042 184.615 354.302 185.085C354.572 185.555 354.707 186.11 354.707 186.75V188.205H349.577V189C349.577 189.65 349.742 190.15 350.072 190.5C350.402 190.84 350.872 191.01 351.482 191.01C352.002 191.01 352.422 190.92 352.742 190.74C353.062 190.55 353.257 190.27 353.327 189.9H354.677C354.587 190.59 354.247 191.14 353.657 191.55C353.077 191.95 352.352 192.15 351.482 192.15ZM353.387 187.305V186.75C353.387 186.1 353.222 185.6 352.892 185.25C352.572 184.9 352.102 184.725 351.482 184.725C350.872 184.725 350.402 184.9 350.072 185.25C349.742 185.6 349.577 186.1 349.577 186.75V187.185H353.492L353.387 187.305ZM367.641 194.7L368.856 191.49L365.796 183.75H367.296L369.216 188.85C369.286 189.02 369.351 189.225 369.411 189.465C369.471 189.695 369.521 189.89 369.561 190.05C369.601 189.89 369.651 189.695 369.711 189.465C369.771 189.225 369.831 189.02 369.891 188.85L371.691 183.75H373.146L369.081 194.7H367.641ZM378.465 192.12C377.805 192.12 377.235 191.995 376.755 191.745C376.275 191.495 375.9 191.135 375.63 190.665C375.37 190.185 375.24 189.62 375.24 188.97V186.78C375.24 186.12 375.37 185.555 375.63 185.085C375.9 184.615 376.275 184.255 376.755 184.005C377.235 183.755 377.805 183.63 378.465 183.63C379.125 183.63 379.695 183.755 380.175 184.005C380.655 184.255 381.025 184.615 381.285 185.085C381.555 185.555 381.69 186.115 381.69 186.765V188.97C381.69 189.62 381.555 190.185 381.285 190.665C381.025 191.135 380.655 191.495 380.175 191.745C379.695 191.995 379.125 192.12 378.465 192.12ZM378.465 190.92C379.055 190.92 379.515 190.755 379.845 190.425C380.175 190.095 380.34 189.61 380.34 188.97V186.78C380.34 186.14 380.175 185.655 379.845 185.325C379.515 184.995 379.055 184.83 378.465 184.83C377.885 184.83 377.425 184.995 377.085 185.325C376.755 185.655 376.59 186.14 376.59 186.78V188.97C376.59 189.61 376.755 190.095 377.085 190.425C377.425 190.755 377.885 190.92 378.465 190.92ZM387.444 192.15C386.494 192.15 385.734 191.87 385.164 191.31C384.594 190.74 384.309 189.97 384.309 189V183.75H385.659V189C385.659 189.62 385.819 190.105 386.139 190.455C386.459 190.795 386.894 190.965 387.444 190.965C388.004 190.965 388.444 190.795 388.764 190.455C389.094 190.105 389.259 189.62 389.259 189V183.75H390.609V189C390.609 189.97 390.319 190.74 389.739 191.31C389.159 191.87 388.394 192.15 387.444 192.15ZM404.247 192V185.805H401.847V184.575H404.247V183.15C404.247 182.5 404.452 181.99 404.862 181.62C405.272 181.24 405.837 181.05 406.557 181.05H408.972V182.28H406.557C406.247 182.28 406.007 182.355 405.837 182.505C405.677 182.645 405.597 182.86 405.597 183.15V184.575H408.972V185.805H405.597V192H404.247ZM411.216 192V190.77H414.141V184.98H411.591V183.75H415.491V190.77H418.266V192H411.216ZM414.666 182.265C414.336 182.265 414.076 182.18 413.886 182.01C413.696 181.84 413.601 181.61 413.601 181.32C413.601 181.02 413.696 180.785 413.886 180.615C414.076 180.435 414.336 180.345 414.666 180.345C414.996 180.345 415.256 180.435 415.446 180.615C415.636 180.785 415.731 181.02 415.731 181.32C415.731 181.61 415.636 181.84 415.446 182.01C415.256 182.18 414.996 182.265 414.666 182.265ZM420.316 192V183.75H421.666V185.325H421.951L421.666 185.64C421.666 184.99 421.861 184.49 422.251 184.14C422.641 183.78 423.181 183.6 423.871 183.6C424.701 183.6 425.361 183.855 425.851 184.365C426.341 184.875 426.586 185.57 426.586 186.45V192H425.236V186.6C425.236 186.01 425.076 185.56 424.756 185.25C424.446 184.93 424.021 184.77 423.481 184.77C422.921 184.77 422.476 184.94 422.146 185.28C421.826 185.62 421.666 186.11 421.666 186.75V192H420.316ZM429.205 192V190.77H432.13V184.98H429.58V183.75H433.48V190.77H436.255V192H429.205ZM432.655 182.265C432.325 182.265 432.065 182.18 431.875 182.01C431.685 181.84 431.59 181.61 431.59 181.32C431.59 181.02 431.685 180.785 431.875 180.615C432.065 180.435 432.325 180.345 432.655 180.345C432.985 180.345 433.245 180.435 433.435 180.615C433.625 180.785 433.72 181.02 433.72 181.32C433.72 181.61 433.625 181.84 433.435 182.01C433.245 182.18 432.985 182.265 432.655 182.265ZM441.169 192.12C440.609 192.12 440.119 192.035 439.699 191.865C439.289 191.685 438.959 191.435 438.709 191.115C438.469 190.795 438.324 190.415 438.274 189.975H439.624C439.684 190.265 439.844 190.495 440.104 190.665C440.374 190.835 440.729 190.92 441.169 190.92H441.799C442.329 190.92 442.724 190.815 442.984 190.605C443.244 190.385 443.374 190.095 443.374 189.735C443.374 189.385 443.254 189.11 443.014 188.91C442.784 188.7 442.439 188.56 441.979 188.49L440.869 188.31C440.059 188.17 439.454 187.92 439.054 187.56C438.664 187.19 438.469 186.655 438.469 185.955C438.469 185.215 438.704 184.645 439.174 184.245C439.644 183.835 440.349 183.63 441.289 183.63H441.859C442.649 183.63 443.284 183.815 443.764 184.185C444.244 184.555 444.534 185.055 444.634 185.685H443.284C443.224 185.425 443.074 185.22 442.834 185.07C442.594 184.91 442.269 184.83 441.859 184.83H441.289C440.779 184.83 440.404 184.925 440.164 185.115C439.934 185.305 439.819 185.59 439.819 185.97C439.819 186.31 439.919 186.56 440.119 186.72C440.319 186.88 440.634 186.995 441.064 187.065L442.174 187.245C443.064 187.385 443.709 187.645 444.109 188.025C444.519 188.405 444.724 188.955 444.724 189.675C444.724 190.435 444.479 191.035 443.989 191.475C443.509 191.905 442.779 192.12 441.799 192.12H441.169ZM447.298 192V181.05H448.648V183.75V185.325H448.933L448.648 185.64C448.648 184.99 448.843 184.49 449.233 184.14C449.623 183.78 450.163 183.6 450.853 183.6C451.683 183.6 452.343 183.855 452.833 184.365C453.323 184.875 453.568 185.57 453.568 186.45V192H452.218V186.6C452.218 186.01 452.058 185.555 451.738 185.235C451.428 184.905 451.003 184.74 450.463 184.74C449.903 184.74 449.458 184.915 449.128 185.265C448.808 185.615 448.648 186.11 448.648 186.75V192H447.298ZM459.412 192.15C458.762 192.15 458.192 192.02 457.702 191.76C457.222 191.5 456.847 191.135 456.577 190.665C456.317 190.185 456.187 189.63 456.187 189V186.75C456.187 186.11 456.317 185.555 456.577 185.085C456.847 184.615 457.222 184.25 457.702 183.99C458.192 183.73 458.762 183.6 459.412 183.6C460.062 183.6 460.627 183.73 461.107 183.99C461.597 184.25 461.972 184.615 462.232 185.085C462.502 185.555 462.637 186.11 462.637 186.75V188.205H457.507V189C457.507 189.65 457.672 190.15 458.002 190.5C458.332 190.84 458.802 191.01 459.412 191.01C459.932 191.01 460.352 190.92 460.672 190.74C460.992 190.55 461.187 190.27 461.257 189.9H462.607C462.517 190.59 462.177 191.14 461.587 191.55C461.007 191.95 460.282 192.15 459.412 192.15ZM461.317 187.305V186.75C461.317 186.1 461.152 185.6 460.822 185.25C460.502 184.9 460.032 184.725 459.412 184.725C458.802 184.725 458.332 184.9 458.002 185.25C457.672 185.6 457.507 186.1 457.507 186.75V187.185H461.422L461.317 187.305ZM467.926 192.15C467.106 192.15 466.441 191.875 465.931 191.325C465.431 190.775 465.181 190.03 465.181 189.09V186.675C465.181 185.725 465.431 184.975 465.931 184.425C466.431 183.875 467.096 183.6 467.926 183.6C468.606 183.6 469.151 183.785 469.561 184.155C469.971 184.525 470.176 185.02 470.176 185.64L469.906 185.325H470.206L470.176 183.45V181.05H471.526V192H470.176V190.425H469.906L470.176 190.11C470.176 190.74 469.971 191.24 469.561 191.61C469.151 191.97 468.606 192.15 467.926 192.15ZM468.376 190.98C468.936 190.98 469.376 190.805 469.696 190.455C470.016 190.105 470.176 189.62 470.176 189V186.75C470.176 186.13 470.016 185.645 469.696 185.295C469.376 184.945 468.936 184.77 468.376 184.77C467.806 184.77 467.356 184.94 467.026 185.28C466.696 185.62 466.531 186.11 466.531 186.75V189C466.531 189.64 466.696 190.13 467.026 190.47C467.356 190.81 467.806 190.98 468.376 190.98ZM484.565 194.7L485.78 191.49L482.72 183.75H484.22L486.14 188.85C486.21 189.02 486.275 189.225 486.335 189.465C486.395 189.695 486.445 189.89 486.485 190.05C486.525 189.89 486.575 189.695 486.635 189.465C486.695 189.225 486.755 189.02 486.815 188.85L488.615 183.75H490.07L486.005 194.7H484.565ZM495.389 192.12C494.729 192.12 494.159 191.995 493.679 191.745C493.199 191.495 492.824 191.135 492.554 190.665C492.294 190.185 492.164 189.62 492.164 188.97V186.78C492.164 186.12 492.294 185.555 492.554 185.085C492.824 184.615 493.199 184.255 493.679 184.005C494.159 183.755 494.729 183.63 495.389 183.63C496.049 183.63 496.619 183.755 497.099 184.005C497.579 184.255 497.949 184.615 498.209 185.085C498.479 185.555 498.614 186.115 498.614 186.765V188.97C498.614 189.62 498.479 190.185 498.209 190.665C497.949 191.135 497.579 191.495 497.099 191.745C496.619 191.995 496.049 192.12 495.389 192.12ZM495.389 190.92C495.979 190.92 496.439 190.755 496.769 190.425C497.099 190.095 497.264 189.61 497.264 188.97V186.78C497.264 186.14 497.099 185.655 496.769 185.325C496.439 184.995 495.979 184.83 495.389 184.83C494.809 184.83 494.349 184.995 494.009 185.325C493.679 185.655 493.514 186.14 493.514 186.78V188.97C493.514 189.61 493.679 190.095 494.009 190.425C494.349 190.755 494.809 190.92 495.389 190.92ZM504.368 192.15C503.418 192.15 502.658 191.87 502.088 191.31C501.518 190.74 501.233 189.97 501.233 189V183.75H502.583V189C502.583 189.62 502.743 190.105 503.063 190.455C503.383 190.795 503.818 190.965 504.368 190.965C504.928 190.965 505.368 190.795 505.688 190.455C506.018 190.105 506.183 189.62 506.183 189V183.75H507.533V189C507.533 189.97 507.243 190.74 506.663 191.31C506.083 191.87 505.318 192.15 504.368 192.15ZM510.542 192V183.75H511.862V185.325H512.177L511.742 186.3C511.742 185.41 511.932 184.74 512.312 184.29C512.702 183.83 513.277 183.6 514.037 183.6C514.907 183.6 515.597 183.875 516.107 184.425C516.627 184.965 516.887 185.7 516.887 186.63V187.125H515.537V186.75C515.537 186.1 515.377 185.605 515.057 185.265C514.747 184.915 514.302 184.74 513.722 184.74C513.152 184.74 512.702 184.915 512.372 185.265C512.052 185.615 511.892 186.11 511.892 186.75V192H510.542Z" fill="#656464"/>
<path d="M532.49 192C532.01 192 531.59 191.905 531.23 191.715C530.87 191.525 530.59 191.255 530.39 190.905C530.19 190.555 530.09 190.145 530.09 189.675V182.28H527.315V181.05H531.44V189.675C531.44 190.015 531.535 190.285 531.725 190.485C531.915 190.675 532.17 190.77 532.49 190.77H535.115V192H532.49ZM540.344 192.15C539.394 192.15 538.634 191.87 538.064 191.31C537.494 190.74 537.209 189.97 537.209 189V183.75H538.559V189C538.559 189.62 538.719 190.105 539.039 190.455C539.359 190.795 539.794 190.965 540.344 190.965C540.904 190.965 541.344 190.795 541.664 190.455C541.994 190.105 542.159 189.62 542.159 189V183.75H543.509V189C543.509 189.97 543.219 190.74 542.639 191.31C542.059 191.87 541.294 192.15 540.344 192.15ZM546.234 192V183.75H547.584V185.325H547.869L547.584 185.64C547.584 184.99 547.779 184.49 548.169 184.14C548.559 183.78 549.099 183.6 549.789 183.6C550.619 183.6 551.279 183.855 551.769 184.365C552.259 184.875 552.504 185.57 552.504 186.45V192H551.154V186.6C551.154 186.01 550.994 185.56 550.674 185.25C550.364 184.93 549.939 184.77 549.399 184.77C548.839 184.77 548.394 184.94 548.064 185.28C547.744 185.62 547.584 186.11 547.584 186.75V192H546.234ZM558.408 192.15C557.748 192.15 557.168 192.025 556.668 191.775C556.178 191.525 555.798 191.165 555.528 190.695C555.258 190.215 555.123 189.65 555.123 189V186.75C555.123 186.09 555.258 185.525 555.528 185.055C555.798 184.585 556.178 184.225 556.668 183.975C557.168 183.725 557.748 183.6 558.408 183.6C559.358 183.6 560.123 183.855 560.703 184.365C561.283 184.875 561.588 185.57 561.618 186.45H560.268C560.238 185.92 560.058 185.515 559.728 185.235C559.408 184.945 558.968 184.8 558.408 184.8C557.818 184.8 557.348 184.97 556.998 185.31C556.648 185.64 556.473 186.115 556.473 186.735V189C556.473 189.62 556.648 190.1 556.998 190.44C557.348 190.78 557.818 190.95 558.408 190.95C558.968 190.95 559.408 190.805 559.728 190.515C560.058 190.225 560.238 189.82 560.268 189.3H561.618C561.588 190.18 561.283 190.875 560.703 191.385C560.123 191.895 559.358 192.15 558.408 192.15ZM564.222 192V181.05H565.572V183.75V185.325H565.857L565.572 185.64C565.572 184.99 565.767 184.49 566.157 184.14C566.547 183.78 567.087 183.6 567.777 183.6C568.607 183.6 569.267 183.855 569.757 184.365C570.247 184.875 570.492 185.57 570.492 186.45V192H569.142V186.6C569.142 186.01 568.982 185.555 568.662 185.235C568.352 184.905 567.927 184.74 567.387 184.74C566.827 184.74 566.382 184.915 566.052 185.265C565.732 185.615 565.572 186.11 565.572 186.75V192H564.222ZM575.001 188.925V186.225H575.751C576.391 186.225 576.896 186.05 577.266 185.7C577.646 185.34 577.836 184.865 577.836 184.275C577.836 183.685 577.646 183.215 577.266 182.865C576.896 182.505 576.386 182.325 575.736 182.325H573.861V181.05H575.736C576.436 181.05 577.041 181.185 577.551 181.455C578.071 181.715 578.471 182.085 578.751 182.565C579.041 183.045 579.186 183.615 579.186 184.275C579.186 184.845 579.066 185.36 578.826 185.82C578.586 186.27 578.251 186.63 577.821 186.9C577.401 187.17 576.911 187.32 576.351 187.35V188.925H575.001ZM575.436 192.075C575.176 192.075 574.961 191.99 574.791 191.82C574.621 191.65 574.536 191.435 574.536 191.175C574.536 190.915 574.621 190.7 574.791 190.53C574.961 190.36 575.176 190.275 575.436 190.275H575.886C576.176 190.275 576.396 190.36 576.546 190.53C576.706 190.69 576.786 190.9 576.786 191.16C576.786 191.42 576.701 191.64 576.531 191.82C576.361 191.99 576.146 192.075 575.886 192.075H575.436Z" fill="#E7E7E7"/>
<path d="M226 148C226 142.477 230.477 138 236 138H291C296.523 138 301 142.477 301 148V202C301 207.523 296.523 212 291 212H236C230.477 212 226 207.523 226 202V148Z" fill="#151515"/>
<path d="M264 181.667C267.682 181.667 270.667 178.682 270.667 175C270.667 171.318 267.682 168.333 264 168.333C260.318 168.333 257.333 171.318 257.333 175C257.333 178.682 260.318 181.667 264 181.667Z" stroke="#A0A0A0" stroke-width="2" stroke-linecap="round" stroke-linejoin="round"/>
<path d="M264 160.333V163" stroke="#A0A0A0" stroke-width="2" stroke-linecap="round" stroke-linejoin="round"/>
<path d="M264 187V189.667" stroke="#A0A0A0" stroke-width="2" stroke-linecap="round" stroke-linejoin="round"/>
<path d="M253.627 164.627L255.52 166.52" stroke="#A0A0A0" stroke-width="2" stroke-linecap="round" stroke-linejoin="round"/>
<path d="M272.48 183.48L274.373 185.373" stroke="#A0A0A0" stroke-width="2" stroke-linecap="round" stroke-linejoin="round"/>
<path d="M249.333 175H252" stroke="#A0A0A0" stroke-width="2" stroke-linecap="round" stroke-linejoin="round"/>
<path d="M276 175H278.667" stroke="#A0A0A0" stroke-width="2" stroke-linecap="round" stroke-linejoin="round"/>
<path d="M253.627 185.373L255.52 183.48" stroke="#A0A0A0" stroke-width="2" stroke-linecap="round" stroke-linejoin="round"/>
<path d="M272.48 166.52L274.373 164.627" stroke="#A0A0A0" stroke-width="2" stroke-linecap="round" stroke-linejoin="round"/>
<defs>
<filter id="filter0_d_3_2" x="317" y="204" width="426" height="15" filterUnits="userSpaceOnUse" color-interpolation-filters="sRGB">
<feFlood flood-opacity="0" result="BackgroundImageFix"/>
<feColorMatrix in="SourceAlpha" type="matrix" values="0 0 0 0 0 0 0 0 0 0 0 0 0 0 0 0 0 0 127 0" result="hardAlpha"/>
<feOffset dy="4"/>
<feGaussianBlur stdDeviation="2"/>
<feComposite in2="hardAlpha" operator="out"/>
<feColorMatrix type="matrix" values="0 0 0 0 0 0 0 0 0 0 0 0 0 0 0 0 0 0 0.25 0"/>
<feBlend mode="normal" in2="BackgroundImageFix" result="effect1_dropShadow_3_2"/>
<feBlend mode="normal" in="SourceGraphic" in2="effect1_dropShadow_3_2" result="shape"/>
</filter>
<linearGradient id="paint0_linear_3_2" x1="321" y1="208" x2="739" y2="208" gradientUnits="userSpaceOnUse">
<stop stop-color="#9D7B7D"/>
<stop offset="0.2" stop-color="#7B9D7C"/>
<stop offset="0.4" stop-color="#B7976A"/>
<stop offset="0.6" stop-color="#687589"/>
<stop offset="0.8" stop-color="#937193"/>
<stop offset="1" stop-color="#628483"/>
</linearGradient>
</defs>
</svg>
