<svg width="1024" height="350" viewBox="0 0 1024 350" fill="none" xmlns="http://www.w3.org/2000/svg">
<rect width="1024" height="350" rx="10" fill="#0C0C0C"/>
<g filter="url(#filter0_d_3_2)">
<path d="M321 204H739V211H321V204Z" fill="url(#paint0_linear_3_2)"/>
</g>
<path d="M327.6 166.25C326.5 166.25 325.542 166.042 324.725 165.625C323.925 165.208 323.3 164.608 322.85 163.825C322.417 163.025 322.2 162.083 322.2 161V152.75C322.2 151.65 322.417 150.708 322.85 149.925C323.3 149.142 323.925 148.542 324.725 148.125C325.542 147.708 326.5 147.5 327.6 147.5C328.7 147.5 329.65 147.717 330.45 148.15C331.25 148.567 331.867 149.167 332.3 149.95C332.733 150.733 332.95 151.667 332.95 152.75H330.7C330.7 151.717 330.425 150.925 329.875 150.375C329.342 149.808 328.583 149.525 327.6 149.525C326.617 149.525 325.842 149.8 325.275 150.35C324.725 150.9 324.45 151.692 324.45 152.725V161C324.45 162.033 324.725 162.833 325.275 163.4C325.842 163.967 326.617 164.25 327.6 164.25C328.583 164.25 329.342 163.967 329.875 163.4C330.425 162.833 330.7 162.033 330.7 161V158.75H327V156.7H332.95V161C332.95 162.067 332.733 163 332.3 163.8C331.867 164.583 331.25 165.192 330.45 165.625C329.65 166.042 328.7 166.25 327.6 166.25ZM342.49 166.2C341.39 166.2 340.44 165.992 339.64 165.575C338.84 165.158 338.215 164.558 337.765 163.775C337.332 162.975 337.115 162.033 337.115 160.95V157.3C337.115 156.2 337.332 155.258 337.765 154.475C338.215 153.692 338.84 153.092 339.64 152.675C340.44 152.258 341.39 152.05 342.49 152.05C343.59 152.05 344.54 152.258 345.34 152.675C346.14 153.092 346.757 153.692 347.19 154.475C347.64 155.258 347.865 156.192 347.865 157.275V160.95C347.865 162.033 347.64 162.975 347.19 163.775C346.757 164.558 346.14 165.158 345.34 165.575C344.54 165.992 343.59 166.2 342.49 166.2ZM342.49 164.2C343.474 164.2 344.24 163.925 344.79 163.375C345.34 162.825 345.615 162.017 345.615 160.95V157.3C345.615 156.233 345.34 155.425 344.79 154.875C344.24 154.325 343.474 154.05 342.49 154.05C341.524 154.05 340.757 154.325 340.19 154.875C339.64 155.425 339.365 156.233 339.365 157.3V160.95C339.365 162.017 339.64 162.825 340.19 163.375C340.757 163.925 341.524 164.2 342.49 164.2ZM357.48 166.2C356.38 166.2 355.43 165.992 354.63 165.575C353.83 165.158 353.205 164.558 352.755 163.775C352.322 162.975 352.105 162.033 352.105 160.95V157.3C352.105 156.2 352.322 155.258 352.755 154.475C353.205 153.692 353.83 153.092 354.63 152.675C355.43 152.258 356.38 152.05 357.48 152.05C358.58 152.05 359.53 152.258 360.33 152.675C361.13 153.092 361.747 153.692 362.18 154.475C362.63 155.258 362.855 156.192 362.855 157.275V160.95C362.855 162.033 362.63 162.975 362.18 163.775C361.747 164.558 361.13 165.158 360.33 165.575C359.53 165.992 358.58 166.2 357.48 166.2ZM357.48 164.2C358.464 164.2 359.23 163.925 359.78 163.375C360.33 162.825 360.605 162.017 360.605 160.95V157.3C360.605 156.233 360.33 155.425 359.78 154.875C359.23 154.325 358.464 154.05 357.48 154.05C356.514 154.05 355.747 154.325 355.18 154.875C354.63 155.425 354.355 156.233 354.355 157.3V160.95C354.355 162.017 354.63 162.825 355.18 163.375C355.747 163.925 356.514 164.2 357.48 164.2ZM371.671 166.25C370.304 166.25 369.196 165.792 368.346 164.875C367.512 163.958 367.096 162.717 367.096 161.15V157.125C367.096 155.542 367.512 154.292 368.346 153.375C369.179 152.458 370.287 152 371.671 152C372.804 152 373.712 152.308 374.396 152.925C375.079 153.542 375.421 154.367 375.421 155.4L374.971 154.875H375.471L375.421 151.75V147.75H377.671V166H375.421V163.375H374.971L375.421 162.85C375.421 163.9 375.079 164.733 374.396 165.35C373.712 165.95 372.804 166.25 371.671 166.25ZM372.421 164.3C373.354 164.3 374.087 164.008 374.621 163.425C375.154 162.842 375.421 162.033 375.421 161V157.25C375.421 156.217 375.154 155.408 374.621 154.825C374.087 154.242 373.354 153.95 372.421 153.95C371.471 153.95 370.721 154.233 370.171 154.8C369.621 155.367 369.346 156.183 369.346 157.25V161C369.346 162.067 369.621 162.883 370.171 163.45C370.721 164.017 371.471 164.3 372.421 164.3ZM397.451 166V147.75H407.951V149.8H399.676V155.45H407.076V157.475H399.676V163.95H407.951V166H397.451ZM415.916 166L411.316 152.25H413.616L416.666 161.5C416.85 162.05 417.016 162.583 417.166 163.1C417.316 163.6 417.425 163.992 417.491 164.275C417.575 163.992 417.691 163.6 417.841 163.1C417.991 162.583 418.15 162.05 418.316 161.5L421.291 152.25H423.566L418.966 166H415.916ZM432.432 166.25C431.348 166.25 430.398 166.033 429.582 165.6C428.782 165.167 428.157 164.558 427.707 163.775C427.273 162.975 427.057 162.05 427.057 161V157.25C427.057 156.183 427.273 155.258 427.707 154.475C428.157 153.692 428.782 153.083 429.582 152.65C430.398 152.217 431.348 152 432.432 152C433.515 152 434.457 152.217 435.257 152.65C436.073 153.083 436.698 153.692 437.132 154.475C437.582 155.258 437.807 156.183 437.807 157.25V159.675H429.257V161C429.257 162.083 429.532 162.917 430.082 163.5C430.632 164.067 431.415 164.35 432.432 164.35C433.298 164.35 433.998 164.2 434.532 163.9C435.065 163.583 435.39 163.117 435.507 162.5H437.757C437.607 163.65 437.04 164.567 436.057 165.25C435.09 165.917 433.882 166.25 432.432 166.25ZM435.607 158.175V157.25C435.607 156.167 435.332 155.333 434.782 154.75C434.248 154.167 433.465 153.875 432.432 153.875C431.415 153.875 430.632 154.167 430.082 154.75C429.532 155.333 429.257 156.167 429.257 157.25V157.975H435.782L435.607 158.175ZM442.222 166V152.25H444.472V154.875H444.947L444.472 155.4C444.472 154.317 444.797 153.483 445.447 152.9C446.097 152.3 446.997 152 448.147 152C449.53 152 450.63 152.425 451.447 153.275C452.264 154.125 452.672 155.283 452.672 156.75V166H450.422V157C450.422 156.017 450.155 155.267 449.622 154.75C449.105 154.217 448.397 153.95 447.497 153.95C446.564 153.95 445.822 154.233 445.272 154.8C444.739 155.367 444.472 156.183 444.472 157.25V166H442.222ZM457.037 166V163.95H461.912V154.3H457.662V152.25H464.162V163.95H468.787V166H457.037ZM462.787 149.775C462.237 149.775 461.804 149.633 461.487 149.35C461.17 149.067 461.012 148.683 461.012 148.2C461.012 147.7 461.17 147.308 461.487 147.025C461.804 146.725 462.237 146.575 462.787 146.575C463.337 146.575 463.77 146.725 464.087 147.025C464.404 147.308 464.562 147.7 464.562 148.2C464.562 148.683 464.404 149.067 464.087 149.35C463.77 149.633 463.337 149.775 462.787 149.775ZM472.202 166V152.25H474.452V154.875H474.927L474.452 155.4C474.452 154.317 474.777 153.483 475.427 152.9C476.077 152.3 476.977 152 478.127 152C479.511 152 480.611 152.425 481.427 153.275C482.244 154.125 482.652 155.283 482.652 156.75V166H480.402V157C480.402 156.017 480.136 155.267 479.602 154.75C479.086 154.217 478.377 153.95 477.477 153.95C476.544 153.95 475.802 154.233 475.252 154.8C474.719 155.367 474.452 156.183 474.452 157.25V166H472.202ZM488.918 170.5V168.45H493.293C493.993 168.45 494.501 168.292 494.818 167.975C495.151 167.658 495.318 167.167 495.318 166.5V164.75L495.368 162.25H494.918L495.343 161.875C495.343 162.875 495.009 163.667 494.343 164.25C493.676 164.833 492.784 165.125 491.668 165.125C490.251 165.125 489.134 164.667 488.318 163.75C487.501 162.817 487.093 161.567 487.093 160V157.1C487.093 155.533 487.501 154.292 488.318 153.375C489.134 152.458 490.251 152 491.668 152C492.784 152 493.676 152.292 494.343 152.875C495.009 153.458 495.343 154.25 495.343 155.25L494.918 154.875H495.343V152.25H497.568V166.5C497.568 167.733 497.184 168.708 496.418 169.425C495.668 170.142 494.618 170.5 493.268 170.5H488.918ZM492.343 163.175C493.276 163.175 494.009 162.883 494.543 162.3C495.076 161.717 495.343 160.908 495.343 159.875V157.25C495.343 156.217 495.076 155.408 494.543 154.825C494.009 154.242 493.276 153.95 492.343 153.95C491.393 153.95 490.651 154.233 490.118 154.8C489.601 155.367 489.343 156.183 489.343 157.25V159.875C489.343 160.942 489.601 161.758 490.118 162.325C490.651 162.892 491.393 163.175 492.343 163.175ZM514.873 158.75V156.75H529.873V158.75H514.873Z" fill="#A0A0A0"/>
<rect x="495" y="177" width="62" height="19" fill="#9D7B7D"/>
<path d="M325.4 192C324.69 192 324.135 191.81 323.735 191.43C323.345 191.05 323.15 190.515 323.15 189.825V184.98H320.825V183.75H323.15V181.425H324.5V183.75H327.8V184.98H324.5V189.825C324.5 190.455 324.8 190.77 325.4 190.77H327.65V192H325.4ZM332.774 192.15C331.904 192.15 331.219 191.93 330.719 191.49C330.219 191.04 329.969 190.435 329.969 189.675C329.969 188.905 330.219 188.3 330.719 187.86C331.219 187.42 331.894 187.2 332.744 187.2H335.294V186.375C335.294 185.865 335.139 185.475 334.829 185.205C334.529 184.925 334.099 184.785 333.539 184.785C333.049 184.785 332.639 184.89 332.309 185.1C331.979 185.3 331.789 185.575 331.739 185.925H330.389C330.479 185.215 330.814 184.65 331.394 184.23C331.974 183.81 332.699 183.6 333.569 183.6C334.519 183.6 335.269 183.845 335.819 184.335C336.369 184.825 336.644 185.49 336.644 186.33V192H335.324V190.425H335.099L335.324 190.2C335.324 190.8 335.089 191.275 334.619 191.625C334.159 191.975 333.544 192.15 332.774 192.15ZM333.104 191.085C333.744 191.085 334.269 190.925 334.679 190.605C335.089 190.285 335.294 189.875 335.294 189.375V188.205H332.774C332.324 188.205 331.969 188.33 331.709 188.58C331.449 188.83 331.319 189.17 331.319 189.6C331.319 190.06 331.474 190.425 331.784 190.695C332.104 190.955 332.544 191.085 333.104 191.085ZM339.413 192V181.05H340.763V187.155H342.353L344.753 183.75H346.298L343.523 187.68L346.343 192H344.768L342.368 188.325H340.763V192H339.413ZM351.482 192.15C350.832 192.15 350.262 192.02 349.772 191.76C349.292 191.5 348.917 191.135 348.647 190.665C348.387 190.185 348.257 189.63 348.257 189V186.75C348.257 186.11 348.387 185.555 348.647 185.085C348.917 184.615 349.292 184.25 349.772 183.99C350.262 183.73 350.832 183.6 351.482 183.6C352.132 183.6 352.697 183.73 353.177 183.99C353.667 184.25 354.042 184.615 354.302 185.085C354.572 185.555 354.707 186.11 354.707 186.75V188.205H349.577V189C349.577 189.65 349.742 190.15 350.072 190.5C350.402 190.84 350.872 191.01 351.482 191.01C352.002 191.01 352.422 190.92 352.742 190.74C353.062 190.55 353.257 190.27 353.327 189.9H354.677C354.587 190.59 354.247 191.14 353.657 191.55C353.077 191.95 352.352 192.15 351.482 192.15ZM353.387 187.305V186.75C353.387 186.1 353.222 185.6 352.892 185.25C352.572 184.9 352.102 184.725 351.482 184.725C350.872 184.725 350.402 184.9 350.072 185.25C349.742 185.6 349.577 186.1 349.577 186.75V187.185H353.492L353.387 187.305ZM367.641 194.7L368.856 191.49L365.796 183.75H367.296L369.216 188.85C369.286 189.02 369.351 189.225 369.411 189.465C369.471 189.695 369.521 189.89 369.561 190.05C369.601 189.89 369.651 189.695 369.711 189.465C369.771 189.225 369.831 189.02 369.891 188.85L371.691 183.75H373.146L369.081 194.7H367.641ZM378.465 192.12C377.805 192.12 377.235 191.995 376.755 191.745C376.275 191.495 375.9 191.135 375.63 190.665C375.37 190.185 375.24 189.62 375.24 188.97V186.78C375.24 186.12 375.37 185.555 375.63 185.085C375.9 184.615 376.275 184.255 376.755 184.005C377.235 183.755 377.805 183.63 378.465 183.63C379.125 183.63 379.695 183.755 380.175 184.005C380.655 184.255 381.025 184.615 381.285 185.085C381.555 185.555 381.69 186.115 381.69 186.765V188.97C381.69 189.62 381.555 190.185 381.285 190.665C381.025 191.135 380.655 191.495 380.175 191.745C379.695 191.995 379.125 192.12 378.465 192.12ZM378.465 190.92C379.055 190.92 379.515 190.755 379.845 190.425C380.175 190.095 380.34 189.61 380.34 188.97V186.78C380.34 186.14 380.175 185.655 379.845 185.325C379.515 184.995 379.055 184.83 378.465 184.83C377.885 184.83 377.425 184.995 377.085 185.325C376.755 185.655 376.59 186.14 376.59 186.78V188.97C376.59 189.61 376.755 190.095 377.085 190.425C377.425 190.755 377.885 190.92 378.465 190.92ZM387.444 192.15C386.494 192.15 385.734 191.87 385.164 191.31C384.594 190.74 384.309 189.97 384.309 189V183.75H385.659V189C385.659 189.62 385.819 190.105 386.139 190.455C386.459 190.795 386.894 190.965 387.444 190.965C388.004 190.965 388.444 190.795 388.764 190.455C389.094 190.105 389.259 189.62 389.259 189V183.75H390.609V189C390.609 189.97 390.319 190.74 389.739 191.31C389.159 191.87 388.394 192.15 387.444 192.15ZM393.618 192V183.75H394.938V185.325H395.253L394.818 186.3C394.818 185.41 395.008 184.74 395.388 184.29C395.778 183.83 396.353 183.6 397.113 183.6C397.983 183.6 398.673 183.875 399.183 184.425C399.703 184.965 399.963 185.7 399.963 186.63V187.125H398.613V186.75C398.613 186.1 398.453 185.605 398.133 185.265C397.823 184.915 397.378 184.74 396.798 184.74C396.228 184.74 395.778 184.915 395.448 185.265C395.128 185.615 394.968 186.11 394.968 186.75V192H393.618ZM415.566 192C415.086 192 414.666 191.905 414.306 191.715C413.946 191.525 413.666 191.255 413.466 190.905C413.266 190.555 413.166 190.145 413.166 189.675V182.28H410.391V181.05H414.516V189.675C414.516 190.015 414.611 190.285 414.801 190.485C414.991 190.675 415.246 190.77 415.566 190.77H418.191V192H415.566ZM423.421 192.15C422.471 192.15 421.711 191.87 421.141 191.31C420.571 190.74 420.286 189.97 420.286 189V183.75H421.636V189C421.636 189.62 421.796 190.105 422.116 190.455C422.436 190.795 422.871 190.965 423.421 190.965C423.981 190.965 424.421 190.795 424.741 190.455C425.071 190.105 425.236 189.62 425.236 189V183.75H426.586V189C426.586 189.97 426.296 190.74 425.716 191.31C425.136 191.87 424.371 192.15 423.421 192.15ZM429.31 192V183.75H430.66V185.325H430.945L430.66 185.64C430.66 184.99 430.855 184.49 431.245 184.14C431.635 183.78 432.175 183.6 432.865 183.6C433.695 183.6 434.355 183.855 434.845 184.365C435.335 184.875 435.58 185.57 435.58 186.45V192H434.23V186.6C434.23 186.01 434.07 185.56 433.75 185.25C433.44 184.93 433.015 184.77 432.475 184.77C431.915 184.77 431.47 184.94 431.14 185.28C430.82 185.62 430.66 186.11 430.66 186.75V192H429.31ZM441.484 192.15C440.824 192.15 440.244 192.025 439.744 191.775C439.254 191.525 438.874 191.165 438.604 190.695C438.334 190.215 438.199 189.65 438.199 189V186.75C438.199 186.09 438.334 185.525 438.604 185.055C438.874 184.585 439.254 184.225 439.744 183.975C440.244 183.725 440.824 183.6 441.484 183.6C442.434 183.6 443.199 183.855 443.779 184.365C444.359 184.875 444.664 185.57 444.694 186.45H443.344C443.314 185.92 443.134 185.515 442.804 185.235C442.484 184.945 442.044 184.8 441.484 184.8C440.894 184.8 440.424 184.97 440.074 185.31C439.724 185.64 439.549 186.115 439.549 186.735V189C439.549 189.62 439.724 190.1 440.074 190.44C440.424 190.78 440.894 190.95 441.484 190.95C442.044 190.95 442.484 190.805 442.804 190.515C443.134 190.225 443.314 189.82 443.344 189.3H444.694C444.664 190.18 444.359 190.875 443.779 191.385C443.199 191.895 442.434 192.15 441.484 192.15ZM447.298 192V181.05H448.648V183.75V185.325H448.933L448.648 185.64C448.648 184.99 448.843 184.49 449.233 184.14C449.623 183.78 450.163 183.6 450.853 183.6C451.683 183.6 452.343 183.855 452.833 184.365C453.323 184.875 453.568 185.57 453.568 186.45V192H452.218V186.6C452.218 186.01 452.058 185.555 451.738 185.235C451.428 184.905 451.003 184.74 450.463 184.74C449.903 184.74 449.458 184.915 449.128 185.265C448.808 185.615 448.648 186.11 448.648 186.75V192H447.298ZM467.686 192.15C466.816 192.15 466.131 191.93 465.631 191.49C465.131 191.04 464.881 190.435 464.881 189.675C464.881 188.905 465.131 188.3 465.631 187.86C466.131 187.42 466.806 187.2 467.656 187.2H470.206V186.375C470.206 185.865 470.051 185.475 469.741 185.205C469.441 184.925 469.011 184.785 468.451 184.785C467.961 184.785 467.551 184.89 467.221 185.1C466.891 185.3 466.701 185.575 466.651 185.925H465.301C465.391 185.215 465.726 184.65 466.306 184.23C466.886 183.81 467.611 183.6 468.481 183.6C469.431 183.6 470.181 183.845 470.731 184.335C471.281 184.825 471.556 185.49 471.556 186.33V192H470.236V190.425H470.011L470.236 190.2C470.236 190.8 470.001 191.275 469.531 191.625C469.071 191.975 468.456 192.15 467.686 192.15ZM468.016 191.085C468.656 191.085 469.181 190.925 469.591 190.605C470.001 190.285 470.206 189.875 470.206 189.375V188.205H467.686C467.236 188.205 466.881 188.33 466.621 188.58C466.361 188.83 466.231 189.17 466.231 189.6C466.231 190.06 466.386 190.425 466.696 190.695C467.016 190.955 467.456 191.085 468.016 191.085ZM474.28 192V183.75H475.63V185.325H475.915L475.63 185.64C475.63 184.99 475.825 184.49 476.215 184.14C476.605 183.78 477.145 183.6 477.835 183.6C478.665 183.6 479.325 183.855 479.815 184.365C480.305 184.875 480.55 185.57 480.55 186.45V192H479.2V186.6C479.2 186.01 479.04 185.56 478.72 185.25C478.41 184.93 477.985 184.77 477.445 184.77C476.885 184.77 476.44 184.94 476.11 185.28C475.79 185.62 475.63 186.11 475.63 186.75V192H474.28ZM485.915 192.15C485.095 192.15 484.43 191.875 483.92 191.325C483.42 190.775 483.17 190.03 483.17 189.09V186.675C483.17 185.725 483.42 184.975 483.92 184.425C484.42 183.875 485.085 183.6 485.915 183.6C486.595 183.6 487.14 183.785 487.55 184.155C487.96 184.525 488.165 185.02 488.165 185.64L487.895 185.325H488.195L488.165 183.45V181.05H489.515V192H488.165V190.425H487.895L488.165 190.11C488.165 190.74 487.96 191.24 487.55 191.61C487.14 191.97 486.595 192.15 485.915 192.15ZM486.365 190.98C486.925 190.98 487.365 190.805 487.685 190.455C488.005 190.105 488.165 189.62 488.165 189V186.75C488.165 186.13 488.005 185.645 487.685 185.295C487.365 184.945 486.925 184.77 486.365 184.77C485.795 184.77 485.345 184.94 485.015 185.28C484.685 185.62 484.52 186.11 484.52 186.75V189C484.52 189.64 484.685 190.13 485.015 190.47C485.345 190.81 485.795 190.98 486.365 190.98Z" fill="#656464"/>
<path d="M504.128 192.12C503.568 192.12 503.078 192.035 502.658 191.865C502.248 191.685 501.918 191.435 501.668 191.115C501.428 190.795 501.283 190.415 501.233 189.975H502.583C502.643 190.265 502.803 190.495 503.063 190.665C503.333 190.835 503.688 190.92 504.128 190.92H504.758C505.288 190.92 505.683 190.815 505.943 190.605C506.203 190.385 506.333 190.095 506.333 189.735C506.333 189.385 506.213 189.11 505.973 188.91C505.743 188.7 505.398 188.56 504.938 188.49L503.828 188.31C503.018 188.17 502.413 187.92 502.013 187.56C501.623 187.19 501.428 186.655 501.428 185.955C501.428 185.215 501.663 184.645 502.133 184.245C502.603 183.835 503.308 183.63 504.248 183.63H504.818C505.608 183.63 506.243 183.815 506.723 184.185C507.203 184.555 507.493 185.055 507.593 185.685H506.243C506.183 185.425 506.033 185.22 505.793 185.07C505.553 184.91 505.228 184.83 504.818 184.83H504.248C503.738 184.83 503.363 184.925 503.123 185.115C502.893 185.305 502.778 185.59 502.778 185.97C502.778 186.31 502.878 186.56 503.078 186.72C503.278 186.88 503.593 186.995 504.023 187.065L505.133 187.245C506.023 187.385 506.668 187.645 507.068 188.025C507.478 188.405 507.683 188.955 507.683 189.675C507.683 190.435 507.438 191.035 506.948 191.475C506.468 191.905 505.738 192.12 504.758 192.12H504.128ZM514.502 192C514.022 192 513.602 191.905 513.242 191.715C512.882 191.525 512.602 191.255 512.402 190.905C512.202 190.555 512.102 190.145 512.102 189.675V182.28H509.327V181.05H513.452V189.675C513.452 190.015 513.547 190.285 513.737 190.485C513.927 190.675 514.182 190.77 514.502 190.77H517.127V192H514.502ZM522.371 192.15C521.721 192.15 521.151 192.02 520.661 191.76C520.181 191.5 519.806 191.135 519.536 190.665C519.276 190.185 519.146 189.63 519.146 189V186.75C519.146 186.11 519.276 185.555 519.536 185.085C519.806 184.615 520.181 184.25 520.661 183.99C521.151 183.73 521.721 183.6 522.371 183.6C523.021 183.6 523.586 183.73 524.066 183.99C524.556 184.25 524.931 184.615 525.191 185.085C525.461 185.555 525.596 186.11 525.596 186.75V188.205H520.466V189C520.466 189.65 520.631 190.15 520.961 190.5C521.291 190.84 521.761 191.01 522.371 191.01C522.891 191.01 523.311 190.92 523.631 190.74C523.951 190.55 524.146 190.27 524.216 189.9H525.566C525.476 190.59 525.136 191.14 524.546 191.55C523.966 191.95 523.241 192.15 522.371 192.15ZM524.276 187.305V186.75C524.276 186.1 524.111 185.6 523.781 185.25C523.461 184.9 522.991 184.725 522.371 184.725C521.761 184.725 521.291 184.9 520.961 185.25C520.631 185.6 520.466 186.1 520.466 186.75V187.185H524.381L524.276 187.305ZM531.365 192.15C530.715 192.15 530.145 192.02 529.655 191.76C529.175 191.5 528.8 191.135 528.53 190.665C528.27 190.185 528.14 189.63 528.14 189V186.75C528.14 186.11 528.27 185.555 528.53 185.085C528.8 184.615 529.175 184.25 529.655 183.99C530.145 183.73 530.715 183.6 531.365 183.6C532.015 183.6 532.58 183.73 533.06 183.99C533.55 184.25 533.925 184.615 534.185 185.085C534.455 185.555 534.59 186.11 534.59 186.75V188.205H529.46V189C529.46 189.65 529.625 190.15 529.955 190.5C530.285 190.84 530.755 191.01 531.365 191.01C531.885 191.01 532.305 190.92 532.625 190.74C532.945 190.55 533.14 190.27 533.21 189.9H534.56C534.47 190.59 534.13 191.14 533.54 191.55C532.96 191.95 532.235 192.15 531.365 192.15ZM533.27 187.305V186.75C533.27 186.1 533.105 185.6 532.775 185.25C532.455 184.9 531.985 184.725 531.365 184.725C530.755 184.725 530.285 184.9 529.955 185.25C529.625 185.6 529.46 186.1 529.46 186.75V187.185H533.375L533.27 187.305ZM537.239 194.7V183.75H538.589V185.325H538.859L538.589 185.64C538.589 185.01 538.794 184.515 539.204 184.155C539.624 183.785 540.174 183.6 540.854 183.6C541.684 183.6 542.344 183.875 542.834 184.425C543.334 184.965 543.584 185.71 543.584 186.66V189.075C543.584 189.705 543.469 190.25 543.239 190.71C543.019 191.17 542.704 191.525 542.294 191.775C541.894 192.025 541.414 192.15 540.854 192.15C540.184 192.15 539.639 191.965 539.219 191.595C538.799 191.225 538.589 190.73 538.589 190.11L538.859 190.425H538.559L538.589 192.3V194.7H537.239ZM540.404 190.98C540.974 190.98 541.419 190.81 541.739 190.47C542.069 190.13 542.234 189.64 542.234 189V186.75C542.234 186.11 542.069 185.62 541.739 185.28C541.419 184.94 540.974 184.77 540.404 184.77C539.854 184.77 539.414 184.945 539.084 185.295C538.754 185.645 538.589 186.13 538.589 186.75V189C538.589 189.62 538.754 190.105 539.084 190.455C539.414 190.805 539.854 190.98 540.404 190.98ZM549.354 192.15C548.974 192.15 548.669 192.04 548.439 191.82C548.219 191.6 548.109 191.305 548.109 190.935C548.109 190.545 548.219 190.235 548.439 190.005C548.669 189.775 548.974 189.66 549.354 189.66C549.734 189.66 550.034 189.775 550.254 190.005C550.484 190.235 550.599 190.545 550.599 190.935C550.599 191.305 550.484 191.6 550.254 191.82C550.034 192.04 549.734 192.15 549.354 192.15Z" fill="#E7E7E7"/>
<path d="M226 148C226 142.477 230.477 138 236 138H291C296.523 138 301 142.477 301 148V202C301 207.523 296.523 212 291 212H236C230.477 212 226 207.523 226 202V148Z" fill="#151515"/>
<path d="M276 176.053C275.79 178.323 274.938 180.486 273.544 182.289C272.15 184.092 270.271 185.461 268.128 186.235C265.984 187.01 263.664 187.157 261.439 186.661C259.215 186.165 257.177 185.046 255.566 183.434C253.954 181.823 252.835 179.785 252.339 177.561C251.843 175.336 251.99 173.016 252.765 170.872C253.539 168.729 254.908 166.85 256.711 165.456C258.514 164.062 260.677 163.21 262.947 163C261.618 164.798 260.978 167.013 261.145 169.242C261.311 171.471 262.272 173.567 263.853 175.147C265.433 176.728 267.529 177.689 269.758 177.855C271.987 178.022 274.202 177.382 276 176.053V176.053Z" stroke="#A0A0A0" stroke-width="2" stroke-linecap="round" stroke-linejoin="round"/>
<defs>
<filter id="filter0_d_3_2" x="317" y="204" width="426" height="15" filterUnits="userSpaceOnUse" color-interpolation-filters="sRGB">
<feFlood flood-opacity="0" result="BackgroundImageFix"/>
<feColorMatrix in="SourceAlpha" type="matrix" values="0 0 0 0 0 0 0 0 0 0 0 0 0 0 0 0 0 0 127 0" result="hardAlpha"/>
<feOffset dy="4"/>
<feGaussianBlur stdDeviation="2"/>
<feComposite in2="hardAlpha" operator="out"/>
<feColorMatrix type="matrix" values="0 0 0 0 0 0 0 0 0 0 0 0 0 0 0 0 0 0 0.25 0"/>
<feBlend mode="normal" in2="BackgroundImageFix" result="effect1_dropShadow_3_2"/>
<feBlend mode="normal" in="SourceGraphic" in2="effect1_dropShadow_3_2" result="shape"/>
</filter>
<linearGradient id="paint0_linear_3_2" x1="321" y1="208" x2="739" y2="208" gradientUnits="userSpaceOnUse">
<stop stop-color="#9D7B7D"/>
<stop offset="0.2" stop-color="#7B9D7C"/>
<stop offset="0.4" stop-color="#B7976A"/>
<stop offset="0.6" stop-color="#687589"/>
<stop offset="0.8" stop-color="#937193"/>
<stop offset="1" stop-color="#628483"/>
</linearGradient>
</defs>
</svg>
