<svg width="1024" height="350" viewBox="0 0 1024 350" fill="none" xmlns="http://www.w3.org/2000/svg">
<rect width="1024" height="350" rx="10" fill="#0C0C0C"/>
<g filter="url(#filter0_d_3_2)">
<path d="M321 204H739V211H321V204Z" fill="url(#paint0_linear_3_2)"/>
</g>
<path d="M327.6 166.25C326.5 166.25 325.542 166.042 324.725 165.625C323.925 165.208 323.3 164.608 322.85 163.825C322.417 163.025 322.2 162.083 322.2 161V152.75C322.2 151.65 322.417 150.708 322.85 149.925C323.3 149.142 323.925 148.542 324.725 148.125C325.542 147.708 326.5 147.5 327.6 147.5C328.7 147.5 329.65 147.717 330.45 148.15C331.25 148.567 331.867 149.167 332.3 149.95C332.733 150.733 332.95 151.667 332.95 152.75H330.7C330.7 151.717 330.425 150.925 329.875 150.375C329.342 149.808 328.583 149.525 327.6 149.525C326.617 149.525 325.842 149.8 325.275 150.35C324.725 150.9 324.45 151.692 324.45 152.725V161C324.45 162.033 324.725 162.833 325.275 163.4C325.842 163.967 326.617 164.25 327.6 164.25C328.583 164.25 329.342 163.967 329.875 163.4C330.425 162.833 330.7 162.033 330.7 161V158.75H327V156.7H332.95V161C332.95 162.067 332.733 163 332.3 163.8C331.867 164.583 331.25 165.192 330.45 165.625C329.65 166.042 328.7 166.25 327.6 166.25ZM342.49 166.2C341.39 166.2 340.44 165.992 339.64 165.575C338.84 165.158 338.215 164.558 337.765 163.775C337.332 162.975 337.115 162.033 337.115 160.95V157.3C337.115 156.2 337.332 155.258 337.765 154.475C338.215 153.692 338.84 153.092 339.64 152.675C340.44 152.258 341.39 152.05 342.49 152.05C343.59 152.05 344.54 152.258 345.34 152.675C346.14 153.092 346.757 153.692 347.19 154.475C347.64 155.258 347.865 156.192 347.865 157.275V160.95C347.865 162.033 347.64 162.975 347.19 163.775C346.757 164.558 346.14 165.158 345.34 165.575C344.54 165.992 343.59 166.2 342.49 166.2ZM342.49 164.2C343.474 164.2 344.24 163.925 344.79 163.375C345.34 162.825 345.615 162.017 345.615 160.95V157.3C345.615 156.233 345.34 155.425 344.79 154.875C344.24 154.325 343.474 154.05 342.49 154.05C341.524 154.05 340.757 154.325 340.19 154.875C339.64 155.425 339.365 156.233 339.365 157.3V160.95C339.365 162.017 339.64 162.825 340.19 163.375C340.757 163.925 341.524 164.2 342.49 164.2ZM357.48 166.2C356.38 166.2 355.43 165.992 354.63 165.575C353.83 165.158 353.205 164.558 352.755 163.775C352.322 162.975 352.105 162.033 352.105 160.95V157.3C352.105 156.2 352.322 155.258 352.755 154.475C353.205 153.692 353.83 153.092 354.63 152.675C355.43 152.258 356.38 152.05 357.48 152.05C358.58 152.05 359.53 152.258 360.33 152.675C361.13 153.092 361.747 153.692 362.18 154.475C362.63 155.258 362.855 156.192 362.855 157.275V160.95C362.855 162.033 362.63 162.975 362.18 163.775C361.747 164.558 361.13 165.158 360.33 165.575C359.53 165.992 358.58 166.2 357.48 166.2ZM357.48 164.2C358.464 164.2 359.23 163.925 359.78 163.375C360.33 162.825 360.605 162.017 360.605 160.95V157.3C360.605 156.233 360.33 155.425 359.78 154.875C359.23 154.325 358.464 154.05 357.48 154.05C356.514 154.05 355.747 154.325 355.18 154.875C354.63 155.425 354.355 156.233 354.355 157.3V160.95C354.355 162.017 354.63 162.825 355.18 163.375C355.747 163.925 356.514 164.2 357.48 164.2ZM371.671 166.25C370.304 166.25 369.196 165.792 368.346 164.875C367.512 163.958 367.096 162.717 367.096 161.15V157.125C367.096 155.542 367.512 154.292 368.346 153.375C369.179 152.458 370.287 152 371.671 152C372.804 152 373.712 152.308 374.396 152.925C375.079 153.542 375.421 154.367 375.421 155.4L374.971 154.875H375.471L375.421 151.75V147.75H377.671V166H375.421V163.375H374.971L375.421 162.85C375.421 163.9 375.079 164.733 374.396 165.35C373.712 165.95 372.804 166.25 371.671 166.25ZM372.421 164.3C373.354 164.3 374.087 164.008 374.621 163.425C375.154 162.842 375.421 162.033 375.421 161V157.25C375.421 156.217 375.154 155.408 374.621 154.825C374.087 154.242 373.354 153.95 372.421 153.95C371.471 153.95 370.721 154.233 370.171 154.8C369.621 155.367 369.346 156.183 369.346 157.25V161C369.346 162.067 369.621 162.883 370.171 163.45C370.721 164.017 371.471 164.3 372.421 164.3ZM396.851 166V147.75H399.801L401.701 153.65C401.885 154.183 402.051 154.717 402.201 155.25C402.351 155.767 402.46 156.167 402.526 156.45C402.61 156.167 402.718 155.767 402.851 155.25C402.985 154.717 403.135 154.175 403.301 153.625L405.101 147.75H408.051V166H405.851V159.375C405.851 158.642 405.876 157.808 405.926 156.875C405.976 155.942 406.043 154.992 406.126 154.025C406.21 153.042 406.293 152.108 406.376 151.225C406.476 150.325 406.56 149.542 406.626 148.875L403.676 158H401.301L398.326 148.875C398.41 149.525 398.493 150.283 398.576 151.15C398.66 152 398.735 152.908 398.801 153.875C398.868 154.825 398.926 155.775 398.976 156.725C399.026 157.675 399.051 158.558 399.051 159.375V166H396.851ZM417.441 166.2C416.341 166.2 415.391 165.992 414.591 165.575C413.791 165.158 413.166 164.558 412.716 163.775C412.283 162.975 412.066 162.033 412.066 160.95V157.3C412.066 156.2 412.283 155.258 412.716 154.475C413.166 153.692 413.791 153.092 414.591 152.675C415.391 152.258 416.341 152.05 417.441 152.05C418.541 152.05 419.491 152.258 420.291 152.675C421.091 153.092 421.708 153.692 422.141 154.475C422.591 155.258 422.816 156.192 422.816 157.275V160.95C422.816 162.033 422.591 162.975 422.141 163.775C421.708 164.558 421.091 165.158 420.291 165.575C419.491 165.992 418.541 166.2 417.441 166.2ZM417.441 164.2C418.425 164.2 419.191 163.925 419.741 163.375C420.291 162.825 420.566 162.017 420.566 160.95V157.3C420.566 156.233 420.291 155.425 419.741 154.875C419.191 154.325 418.425 154.05 417.441 154.05C416.475 154.05 415.708 154.325 415.141 154.875C414.591 155.425 414.316 156.233 414.316 157.3V160.95C414.316 162.017 414.591 162.825 415.141 163.375C415.708 163.925 416.475 164.2 417.441 164.2ZM427.707 166V152.25H429.907V154.875H430.432L429.707 156.5C429.707 155.017 430.023 153.9 430.657 153.15C431.307 152.383 432.265 152 433.532 152C434.982 152 436.132 152.458 436.982 153.375C437.848 154.275 438.282 155.5 438.282 157.05V157.875H436.032V157.25C436.032 156.167 435.765 155.342 435.232 154.775C434.715 154.192 433.973 153.9 433.007 153.9C432.057 153.9 431.307 154.192 430.757 154.775C430.223 155.358 429.957 156.183 429.957 157.25V166H427.707ZM442.222 166V152.25H444.472V154.875H444.947L444.472 155.4C444.472 154.317 444.797 153.483 445.447 152.9C446.097 152.3 446.997 152 448.147 152C449.53 152 450.63 152.425 451.447 153.275C452.264 154.125 452.672 155.283 452.672 156.75V166H450.422V157C450.422 156.017 450.155 155.267 449.622 154.75C449.105 154.217 448.397 153.95 447.497 153.95C446.564 153.95 445.822 154.233 445.272 154.8C444.739 155.367 444.472 156.183 444.472 157.25V166H442.222ZM457.037 166V163.95H461.912V154.3H457.662V152.25H464.162V163.95H468.787V166H457.037ZM462.787 149.775C462.237 149.775 461.804 149.633 461.487 149.35C461.17 149.067 461.012 148.683 461.012 148.2C461.012 147.7 461.17 147.308 461.487 147.025C461.804 146.725 462.237 146.575 462.787 146.575C463.337 146.575 463.77 146.725 464.087 147.025C464.404 147.308 464.562 147.7 464.562 148.2C464.562 148.683 464.404 149.067 464.087 149.35C463.77 149.633 463.337 149.775 462.787 149.775ZM472.202 166V152.25H474.452V154.875H474.927L474.452 155.4C474.452 154.317 474.777 153.483 475.427 152.9C476.077 152.3 476.977 152 478.127 152C479.511 152 480.611 152.425 481.427 153.275C482.244 154.125 482.652 155.283 482.652 156.75V166H480.402V157C480.402 156.017 480.136 155.267 479.602 154.75C479.086 154.217 478.377 153.95 477.477 153.95C476.544 153.95 475.802 154.233 475.252 154.8C474.719 155.367 474.452 156.183 474.452 157.25V166H472.202ZM488.918 170.5V168.45H493.293C493.993 168.45 494.501 168.292 494.818 167.975C495.151 167.658 495.318 167.167 495.318 166.5V164.75L495.368 162.25H494.918L495.343 161.875C495.343 162.875 495.009 163.667 494.343 164.25C493.676 164.833 492.784 165.125 491.668 165.125C490.251 165.125 489.134 164.667 488.318 163.75C487.501 162.817 487.093 161.567 487.093 160V157.1C487.093 155.533 487.501 154.292 488.318 153.375C489.134 152.458 490.251 152 491.668 152C492.784 152 493.676 152.292 494.343 152.875C495.009 153.458 495.343 154.25 495.343 155.25L494.918 154.875H495.343V152.25H497.568V166.5C497.568 167.733 497.184 168.708 496.418 169.425C495.668 170.142 494.618 170.5 493.268 170.5H488.918ZM492.343 163.175C493.276 163.175 494.009 162.883 494.543 162.3C495.076 161.717 495.343 160.908 495.343 159.875V157.25C495.343 156.217 495.076 155.408 494.543 154.825C494.009 154.242 493.276 153.95 492.343 153.95C491.393 153.95 490.651 154.233 490.118 154.8C489.601 155.367 489.343 156.183 489.343 157.25V159.875C489.343 160.942 489.601 161.758 490.118 162.325C490.651 162.892 491.393 163.175 492.343 163.175ZM514.873 158.75V156.75H529.873V158.75H514.873Z" fill="#A0A0A0"/>
<rect x="568" y="177" width="78" height="19" fill="#9D7B7D"/>
<path d="M324.245 192.12C323.685 192.12 323.195 192.035 322.775 191.865C322.365 191.685 322.035 191.435 321.785 191.115C321.545 190.795 321.4 190.415 321.35 189.975H322.7C322.76 190.265 322.92 190.495 323.18 190.665C323.45 190.835 323.805 190.92 324.245 190.92H324.875C325.405 190.92 325.8 190.815 326.06 190.605C326.32 190.385 326.45 190.095 326.45 189.735C326.45 189.385 326.33 189.11 326.09 188.91C325.86 188.7 325.515 188.56 325.055 188.49L323.945 188.31C323.135 188.17 322.53 187.92 322.13 187.56C321.74 187.19 321.545 186.655 321.545 185.955C321.545 185.215 321.78 184.645 322.25 184.245C322.72 183.835 323.425 183.63 324.365 183.63H324.935C325.725 183.63 326.36 183.815 326.84 184.185C327.32 184.555 327.61 185.055 327.71 185.685H326.36C326.3 185.425 326.15 185.22 325.91 185.07C325.67 184.91 325.345 184.83 324.935 184.83H324.365C323.855 184.83 323.48 184.925 323.24 185.115C323.01 185.305 322.895 185.59 322.895 185.97C322.895 186.31 322.995 186.56 323.195 186.72C323.395 186.88 323.71 186.995 324.14 187.065L325.25 187.245C326.14 187.385 326.785 187.645 327.185 188.025C327.595 188.405 327.8 188.955 327.8 189.675C327.8 190.435 327.555 191.035 327.065 191.475C326.585 191.905 325.855 192.12 324.875 192.12H324.245ZM334.394 192C333.684 192 333.129 191.81 332.729 191.43C332.339 191.05 332.144 190.515 332.144 189.825V184.98H329.819V183.75H332.144V181.425H333.494V183.75H336.794V184.98H333.494V189.825C333.494 190.455 333.794 190.77 334.394 190.77H336.644V192H334.394ZM341.768 192.15C340.898 192.15 340.213 191.93 339.713 191.49C339.213 191.04 338.963 190.435 338.963 189.675C338.963 188.905 339.213 188.3 339.713 187.86C340.213 187.42 340.888 187.2 341.738 187.2H344.288V186.375C344.288 185.865 344.133 185.475 343.823 185.205C343.523 184.925 343.093 184.785 342.533 184.785C342.043 184.785 341.633 184.89 341.303 185.1C340.973 185.3 340.783 185.575 340.733 185.925H339.383C339.473 185.215 339.808 184.65 340.388 184.23C340.968 183.81 341.693 183.6 342.563 183.6C343.513 183.6 344.263 183.845 344.813 184.335C345.363 184.825 345.638 185.49 345.638 186.33V192H344.318V190.425H344.093L344.318 190.2C344.318 190.8 344.083 191.275 343.613 191.625C343.153 191.975 342.538 192.15 341.768 192.15ZM342.098 191.085C342.738 191.085 343.263 190.925 343.673 190.605C344.083 190.285 344.288 189.875 344.288 189.375V188.205H341.768C341.318 188.205 340.963 188.33 340.703 188.58C340.443 188.83 340.313 189.17 340.313 189.6C340.313 190.06 340.468 190.425 340.778 190.695C341.098 190.955 341.538 191.085 342.098 191.085ZM348.647 192V183.75H349.967V185.325H350.282L349.847 186.3C349.847 185.41 350.037 184.74 350.417 184.29C350.807 183.83 351.382 183.6 352.142 183.6C353.012 183.6 353.702 183.875 354.212 184.425C354.732 184.965 354.992 185.7 354.992 186.63V187.125H353.642V186.75C353.642 186.1 353.482 185.605 353.162 185.265C352.852 184.915 352.407 184.74 351.827 184.74C351.257 184.74 350.807 184.915 350.477 185.265C350.157 185.615 349.997 186.11 349.997 186.75V192H348.647ZM361.377 192C360.667 192 360.112 191.81 359.712 191.43C359.322 191.05 359.127 190.515 359.127 189.825V184.98H356.802V183.75H359.127V181.425H360.477V183.75H363.777V184.98H360.477V189.825C360.477 190.455 360.777 190.77 361.377 190.77H363.627V192H361.377ZM376.635 194.7L377.85 191.49L374.79 183.75H376.29L378.21 188.85C378.28 189.02 378.345 189.225 378.405 189.465C378.465 189.695 378.515 189.89 378.555 190.05C378.595 189.89 378.645 189.695 378.705 189.465C378.765 189.225 378.825 189.02 378.885 188.85L380.685 183.75H382.14L378.075 194.7H376.635ZM387.459 192.12C386.799 192.12 386.229 191.995 385.749 191.745C385.269 191.495 384.894 191.135 384.624 190.665C384.364 190.185 384.234 189.62 384.234 188.97V186.78C384.234 186.12 384.364 185.555 384.624 185.085C384.894 184.615 385.269 184.255 385.749 184.005C386.229 183.755 386.799 183.63 387.459 183.63C388.119 183.63 388.689 183.755 389.169 184.005C389.649 184.255 390.019 184.615 390.279 185.085C390.549 185.555 390.684 186.115 390.684 186.765V188.97C390.684 189.62 390.549 190.185 390.279 190.665C390.019 191.135 389.649 191.495 389.169 191.745C388.689 191.995 388.119 192.12 387.459 192.12ZM387.459 190.92C388.049 190.92 388.509 190.755 388.839 190.425C389.169 190.095 389.334 189.61 389.334 188.97V186.78C389.334 186.14 389.169 185.655 388.839 185.325C388.509 184.995 388.049 184.83 387.459 184.83C386.879 184.83 386.419 184.995 386.079 185.325C385.749 185.655 385.584 186.14 385.584 186.78V188.97C385.584 189.61 385.749 190.095 386.079 190.425C386.419 190.755 386.879 190.92 387.459 190.92ZM396.438 192.15C395.488 192.15 394.728 191.87 394.158 191.31C393.588 190.74 393.303 189.97 393.303 189V183.75H394.653V189C394.653 189.62 394.813 190.105 395.133 190.455C395.453 190.795 395.888 190.965 396.438 190.965C396.998 190.965 397.438 190.795 397.758 190.455C398.088 190.105 398.253 189.62 398.253 189V183.75H399.603V189C399.603 189.97 399.313 190.74 398.733 191.31C398.153 191.87 397.388 192.15 396.438 192.15ZM402.612 192V183.75H403.932V185.325H404.247L403.812 186.3C403.812 185.41 404.002 184.74 404.382 184.29C404.772 183.83 405.347 183.6 406.107 183.6C406.977 183.6 407.667 183.875 408.177 184.425C408.697 184.965 408.957 185.7 408.957 186.63V187.125H407.607V186.75C407.607 186.1 407.447 185.605 407.127 185.265C406.817 184.915 406.372 184.74 405.792 184.74C405.222 184.74 404.772 184.915 404.442 185.265C404.122 185.615 403.962 186.11 403.962 186.75V192H402.612ZM422.956 192.15C422.136 192.15 421.471 191.875 420.961 191.325C420.461 190.775 420.211 190.03 420.211 189.09V186.675C420.211 185.725 420.461 184.975 420.961 184.425C421.461 183.875 422.126 183.6 422.956 183.6C423.636 183.6 424.181 183.785 424.591 184.155C425.001 184.525 425.206 185.02 425.206 185.64L424.936 185.325H425.236L425.206 183.45V181.05H426.556V192H425.206V190.425H424.936L425.206 190.11C425.206 190.74 425.001 191.24 424.591 191.61C424.181 191.97 423.636 192.15 422.956 192.15ZM423.406 190.98C423.966 190.98 424.406 190.805 424.726 190.455C425.046 190.105 425.206 189.62 425.206 189V186.75C425.206 186.13 425.046 185.645 424.726 185.295C424.406 184.945 423.966 184.77 423.406 184.77C422.836 184.77 422.386 184.94 422.056 185.28C421.726 185.62 421.561 186.11 421.561 186.75V189C421.561 189.64 421.726 190.13 422.056 190.47C422.386 190.81 422.836 190.98 423.406 190.98ZM431.71 192.15C430.84 192.15 430.155 191.93 429.655 191.49C429.155 191.04 428.905 190.435 428.905 189.675C428.905 188.905 429.155 188.3 429.655 187.86C430.155 187.42 430.83 187.2 431.68 187.2H434.23V186.375C434.23 185.865 434.075 185.475 433.765 185.205C433.465 184.925 433.035 184.785 432.475 184.785C431.985 184.785 431.575 184.89 431.245 185.1C430.915 185.3 430.725 185.575 430.675 185.925H429.325C429.415 185.215 429.75 184.65 430.33 184.23C430.91 183.81 431.635 183.6 432.505 183.6C433.455 183.6 434.205 183.845 434.755 184.335C435.305 184.825 435.58 185.49 435.58 186.33V192H434.26V190.425H434.035L434.26 190.2C434.26 190.8 434.025 191.275 433.555 191.625C433.095 191.975 432.48 192.15 431.71 192.15ZM432.04 191.085C432.68 191.085 433.205 190.925 433.615 190.605C434.025 190.285 434.23 189.875 434.23 189.375V188.205H431.71C431.26 188.205 430.905 188.33 430.645 188.58C430.385 188.83 430.255 189.17 430.255 189.6C430.255 190.06 430.41 190.425 430.72 190.695C431.04 190.955 431.48 191.085 432.04 191.085ZM439.594 194.7L440.809 191.49L437.749 183.75H439.249L441.169 188.85C441.239 189.02 441.304 189.225 441.364 189.465C441.424 189.695 441.474 189.89 441.514 190.05C441.554 189.89 441.604 189.695 441.664 189.465C441.724 189.225 441.784 189.02 441.844 188.85L443.644 183.75H445.099L441.034 194.7H439.594ZM456.757 192L455.437 183.75H456.637L457.462 189.6C457.492 189.82 457.522 190.06 457.552 190.32C457.592 190.57 457.622 190.78 457.642 190.95C457.662 190.78 457.692 190.57 457.732 190.32C457.782 190.06 457.822 189.82 457.852 189.6L458.767 183.75H460.057L460.972 189.6C461.002 189.82 461.037 190.06 461.077 190.32C461.127 190.57 461.162 190.78 461.182 190.95C461.202 190.78 461.232 190.57 461.272 190.32C461.322 190.06 461.362 189.82 461.392 189.6L462.247 183.75H463.387L462.007 192H460.522L459.637 186.3C459.597 186.02 459.552 185.74 459.502 185.46C459.452 185.18 459.417 184.96 459.397 184.8C459.377 184.96 459.347 185.18 459.307 185.46C459.267 185.74 459.222 186.02 459.172 186.3L458.242 192H456.757ZM465.181 192V190.77H468.106V184.98H465.556V183.75H469.456V190.77H472.231V192H465.181ZM468.631 182.265C468.301 182.265 468.041 182.18 467.851 182.01C467.661 181.84 467.566 181.61 467.566 181.32C467.566 181.02 467.661 180.785 467.851 180.615C468.041 180.435 468.301 180.345 468.631 180.345C468.961 180.345 469.221 180.435 469.411 180.615C469.601 180.785 469.696 181.02 469.696 181.32C469.696 181.61 469.601 181.84 469.411 182.01C469.221 182.18 468.961 182.265 468.631 182.265ZM478.3 192C477.59 192 477.035 191.81 476.635 191.43C476.245 191.05 476.05 190.515 476.05 189.825V184.98H473.725V183.75H476.05V181.425H477.4V183.75H480.7V184.98H477.4V189.825C477.4 190.455 477.7 190.77 478.3 190.77H480.55V192H478.3ZM483.275 192V181.05H484.625V183.75V185.325H484.91L484.625 185.64C484.625 184.99 484.82 184.49 485.21 184.14C485.6 183.78 486.14 183.6 486.83 183.6C487.66 183.6 488.32 183.855 488.81 184.365C489.3 184.875 489.545 185.57 489.545 186.45V192H488.195V186.6C488.195 186.01 488.035 185.555 487.715 185.235C487.405 184.905 486.98 184.74 486.44 184.74C485.88 184.74 485.435 184.915 485.105 185.265C484.785 185.615 484.625 186.11 484.625 186.75V192H483.275ZM503.663 192.15C502.793 192.15 502.108 191.93 501.608 191.49C501.108 191.04 500.858 190.435 500.858 189.675C500.858 188.905 501.108 188.3 501.608 187.86C502.108 187.42 502.783 187.2 503.633 187.2H506.183V186.375C506.183 185.865 506.028 185.475 505.718 185.205C505.418 184.925 504.988 184.785 504.428 184.785C503.938 184.785 503.528 184.89 503.198 185.1C502.868 185.3 502.678 185.575 502.628 185.925H501.278C501.368 185.215 501.703 184.65 502.283 184.23C502.863 183.81 503.588 183.6 504.458 183.6C505.408 183.6 506.158 183.845 506.708 184.335C507.258 184.825 507.533 185.49 507.533 186.33V192H506.213V190.425H505.988L506.213 190.2C506.213 190.8 505.978 191.275 505.508 191.625C505.048 191.975 504.433 192.15 503.663 192.15ZM503.993 191.085C504.633 191.085 505.158 190.925 505.568 190.605C505.978 190.285 506.183 189.875 506.183 189.375V188.205H503.663C503.213 188.205 502.858 188.33 502.598 188.58C502.338 188.83 502.208 189.17 502.208 189.6C502.208 190.06 502.363 190.425 502.673 190.695C502.993 190.955 503.433 191.085 503.993 191.085ZM520.286 194.7V193.47H522.911C523.331 193.47 523.636 193.375 523.826 193.185C524.026 192.995 524.126 192.7 524.126 192.3V191.25L524.156 189.75H523.886L524.141 189.525C524.141 190.125 523.941 190.6 523.541 190.95C523.141 191.3 522.606 191.475 521.936 191.475C521.086 191.475 520.416 191.2 519.926 190.65C519.436 190.09 519.191 189.34 519.191 188.4V186.66C519.191 185.72 519.436 184.975 519.926 184.425C520.416 183.875 521.086 183.6 521.936 183.6C522.606 183.6 523.141 183.775 523.541 184.125C523.941 184.475 524.141 184.95 524.141 185.55L523.886 185.325H524.141V183.75H525.476V192.3C525.476 193.04 525.246 193.625 524.786 194.055C524.336 194.485 523.706 194.7 522.896 194.7H520.286ZM522.341 190.305C522.901 190.305 523.341 190.13 523.661 189.78C523.981 189.43 524.141 188.945 524.141 188.325V186.75C524.141 186.13 523.981 185.645 523.661 185.295C523.341 184.945 522.901 184.77 522.341 184.77C521.771 184.77 521.326 184.94 521.006 185.28C520.696 185.62 520.541 186.11 520.541 186.75V188.325C520.541 188.965 520.696 189.455 521.006 189.795C521.326 190.135 521.771 190.305 522.341 190.305ZM528.53 192V183.75H529.85V185.325H530.165L529.73 186.3C529.73 185.41 529.92 184.74 530.3 184.29C530.69 183.83 531.265 183.6 532.025 183.6C532.895 183.6 533.585 183.875 534.095 184.425C534.615 184.965 534.875 185.7 534.875 186.63V187.125H533.525V186.75C533.525 186.1 533.365 185.605 533.045 185.265C532.735 184.915 532.29 184.74 531.71 184.74C531.14 184.74 530.69 184.915 530.36 185.265C530.04 185.615 529.88 186.11 529.88 186.75V192H528.53ZM540.359 192.15C539.709 192.15 539.139 192.02 538.649 191.76C538.169 191.5 537.794 191.135 537.524 190.665C537.264 190.185 537.134 189.63 537.134 189V186.75C537.134 186.11 537.264 185.555 537.524 185.085C537.794 184.615 538.169 184.25 538.649 183.99C539.139 183.73 539.709 183.6 540.359 183.6C541.009 183.6 541.574 183.73 542.054 183.99C542.544 184.25 542.919 184.615 543.179 185.085C543.449 185.555 543.584 186.11 543.584 186.75V188.205H538.454V189C538.454 189.65 538.619 190.15 538.949 190.5C539.279 190.84 539.749 191.01 540.359 191.01C540.879 191.01 541.299 190.92 541.619 190.74C541.939 190.55 542.134 190.27 542.204 189.9H543.554C543.464 190.59 543.124 191.14 542.534 191.55C541.954 191.95 541.229 192.15 540.359 192.15ZM542.264 187.305V186.75C542.264 186.1 542.099 185.6 541.769 185.25C541.449 184.9 540.979 184.725 540.359 184.725C539.749 184.725 539.279 184.9 538.949 185.25C538.619 185.6 538.454 186.1 538.454 186.75V187.185H542.369L542.264 187.305ZM548.634 192.15C547.764 192.15 547.079 191.93 546.579 191.49C546.079 191.04 545.829 190.435 545.829 189.675C545.829 188.905 546.079 188.3 546.579 187.86C547.079 187.42 547.754 187.2 548.604 187.2H551.154V186.375C551.154 185.865 550.999 185.475 550.689 185.205C550.389 184.925 549.959 184.785 549.399 184.785C548.909 184.785 548.499 184.89 548.169 185.1C547.839 185.3 547.649 185.575 547.599 185.925H546.249C546.339 185.215 546.674 184.65 547.254 184.23C547.834 183.81 548.559 183.6 549.429 183.6C550.379 183.6 551.129 183.845 551.679 184.335C552.229 184.825 552.504 185.49 552.504 186.33V192H551.184V190.425H550.959L551.184 190.2C551.184 190.8 550.949 191.275 550.479 191.625C550.019 191.975 549.404 192.15 548.634 192.15ZM548.964 191.085C549.604 191.085 550.129 190.925 550.539 190.605C550.949 190.285 551.154 189.875 551.154 189.375V188.205H548.634C548.184 188.205 547.829 188.33 547.569 188.58C547.309 188.83 547.179 189.17 547.179 189.6C547.179 190.06 547.334 190.425 547.644 190.695C547.964 190.955 548.404 191.085 548.964 191.085ZM559.248 192C558.538 192 557.983 191.81 557.583 191.43C557.193 191.05 556.998 190.515 556.998 189.825V184.98H554.673V183.75H556.998V181.425H558.348V183.75H561.648V184.98H558.348V189.825C558.348 190.455 558.648 190.77 559.248 190.77H561.498V192H559.248Z" fill="#656464"/>
<path d="M576.396 192.15C575.736 192.15 575.156 192.025 574.656 191.775C574.166 191.525 573.786 191.165 573.516 190.695C573.246 190.215 573.111 189.65 573.111 189V186.75C573.111 186.09 573.246 185.525 573.516 185.055C573.786 184.585 574.166 184.225 574.656 183.975C575.156 183.725 575.736 183.6 576.396 183.6C577.346 183.6 578.111 183.855 578.691 184.365C579.271 184.875 579.576 185.57 579.606 186.45H578.256C578.226 185.92 578.046 185.515 577.716 185.235C577.396 184.945 576.956 184.8 576.396 184.8C575.806 184.8 575.336 184.97 574.986 185.31C574.636 185.64 574.461 186.115 574.461 186.735V189C574.461 189.62 574.636 190.1 574.986 190.44C575.336 190.78 575.806 190.95 576.396 190.95C576.956 190.95 577.396 190.805 577.716 190.515C578.046 190.225 578.226 189.82 578.256 189.3H579.606C579.576 190.18 579.271 190.875 578.691 191.385C578.111 191.895 577.346 192.15 576.396 192.15ZM584.61 192.15C583.74 192.15 583.055 191.93 582.555 191.49C582.055 191.04 581.805 190.435 581.805 189.675C581.805 188.905 582.055 188.3 582.555 187.86C583.055 187.42 583.73 187.2 584.58 187.2H587.13V186.375C587.13 185.865 586.975 185.475 586.665 185.205C586.365 184.925 585.935 184.785 585.375 184.785C584.885 184.785 584.475 184.89 584.145 185.1C583.815 185.3 583.625 185.575 583.575 185.925H582.225C582.315 185.215 582.65 184.65 583.23 184.23C583.81 183.81 584.535 183.6 585.405 183.6C586.355 183.6 587.105 183.845 587.655 184.335C588.205 184.825 588.48 185.49 588.48 186.33V192H587.16V190.425H586.935L587.16 190.2C587.16 190.8 586.925 191.275 586.455 191.625C585.995 191.975 585.38 192.15 584.61 192.15ZM584.94 191.085C585.58 191.085 586.105 190.925 586.515 190.605C586.925 190.285 587.13 189.875 587.13 189.375V188.205H584.61C584.16 188.205 583.805 188.33 583.545 188.58C583.285 188.83 583.155 189.17 583.155 189.6C583.155 190.06 583.31 190.425 583.62 190.695C583.94 190.955 584.38 191.085 584.94 191.085ZM593.124 192V185.805H590.724V184.575H593.124V183.15C593.124 182.5 593.329 181.99 593.739 181.62C594.149 181.24 594.714 181.05 595.434 181.05H597.849V182.28H595.434C595.124 182.28 594.884 182.355 594.714 182.505C594.554 182.645 594.474 182.86 594.474 183.15V184.575H597.849V185.805H594.474V192H593.124ZM602.118 192V185.805H599.718V184.575H602.118V183.15C602.118 182.5 602.323 181.99 602.733 181.62C603.143 181.24 603.708 181.05 604.428 181.05H606.843V182.28H604.428C604.118 182.28 603.878 182.355 603.708 182.505C603.548 182.645 603.468 182.86 603.468 183.15V184.575H606.843V185.805H603.468V192H602.118ZM612.313 192.15C611.663 192.15 611.093 192.02 610.603 191.76C610.123 191.5 609.748 191.135 609.478 190.665C609.218 190.185 609.088 189.63 609.088 189V186.75C609.088 186.11 609.218 185.555 609.478 185.085C609.748 184.615 610.123 184.25 610.603 183.99C611.093 183.73 611.663 183.6 612.313 183.6C612.963 183.6 613.528 183.73 614.008 183.99C614.498 184.25 614.873 184.615 615.133 185.085C615.403 185.555 615.538 186.11 615.538 186.75V188.205H610.408V189C610.408 189.65 610.573 190.15 610.903 190.5C611.233 190.84 611.703 191.01 612.313 191.01C612.833 191.01 613.253 190.92 613.573 190.74C613.893 190.55 614.088 190.27 614.158 189.9H615.508C615.418 190.59 615.078 191.14 614.488 191.55C613.908 191.95 613.183 192.15 612.313 192.15ZM614.218 187.305V186.75C614.218 186.1 614.053 185.6 613.723 185.25C613.403 184.9 612.933 184.725 612.313 184.725C611.703 184.725 611.233 184.9 610.903 185.25C610.573 185.6 610.408 186.1 610.408 186.75V187.185H614.323L614.218 187.305ZM618.082 192V190.77H621.007V184.98H618.457V183.75H622.357V190.77H625.132V192H618.082ZM621.532 182.265C621.202 182.265 620.942 182.18 620.752 182.01C620.562 181.84 620.467 181.61 620.467 181.32C620.467 181.02 620.562 180.785 620.752 180.615C620.942 180.435 621.202 180.345 621.532 180.345C621.862 180.345 622.122 180.435 622.312 180.615C622.502 180.785 622.597 181.02 622.597 181.32C622.597 181.61 622.502 181.84 622.312 182.01C622.122 182.18 621.862 182.265 621.532 182.265ZM627.181 192V183.75H628.531V185.325H628.816L628.531 185.64C628.531 184.99 628.726 184.49 629.116 184.14C629.506 183.78 630.046 183.6 630.736 183.6C631.566 183.6 632.226 183.855 632.716 184.365C633.206 184.875 633.451 185.57 633.451 186.45V192H632.101V186.6C632.101 186.01 631.941 185.56 631.621 185.25C631.311 184.93 630.886 184.77 630.346 184.77C629.786 184.77 629.341 184.94 629.011 185.28C628.691 185.62 628.531 186.11 628.531 186.75V192H627.181ZM639.295 192.15C638.645 192.15 638.075 192.02 637.585 191.76C637.105 191.5 636.73 191.135 636.46 190.665C636.2 190.185 636.07 189.63 636.07 189V186.75C636.07 186.11 636.2 185.555 636.46 185.085C636.73 184.615 637.105 184.25 637.585 183.99C638.075 183.73 638.645 183.6 639.295 183.6C639.945 183.6 640.51 183.73 640.99 183.99C641.48 184.25 641.855 184.615 642.115 185.085C642.385 185.555 642.52 186.11 642.52 186.75V188.205H637.39V189C637.39 189.65 637.555 190.15 637.885 190.5C638.215 190.84 638.685 191.01 639.295 191.01C639.815 191.01 640.235 190.92 640.555 190.74C640.875 190.55 641.07 190.27 641.14 189.9H642.49C642.4 190.59 642.06 191.14 641.47 191.55C640.89 191.95 640.165 192.15 639.295 192.15ZM641.2 187.305V186.75C641.2 186.1 641.035 185.6 640.705 185.25C640.385 184.9 639.915 184.725 639.295 184.725C638.685 184.725 638.215 184.9 637.885 185.25C637.555 185.6 637.39 186.1 637.39 186.75V187.185H641.305L641.2 187.305Z" fill="#E7E7E7"/>
<path d="M226 148C226 142.477 230.477 138 236 138H291C296.523 138 301 142.477 301 148V202C301 207.523 296.523 212 291 212H236C230.477 212 226 207.523 226 202V148Z" fill="#151515"/>
<path d="M264 181.667C267.682 181.667 270.667 178.682 270.667 175C270.667 171.318 267.682 168.333 264 168.333C260.318 168.333 257.333 171.318 257.333 175C257.333 178.682 260.318 181.667 264 181.667Z" stroke="#A0A0A0" stroke-width="2" stroke-linecap="round" stroke-linejoin="round"/>
<path d="M264 160.333V163" stroke="#A0A0A0" stroke-width="2" stroke-linecap="round" stroke-linejoin="round"/>
<path d="M264 187V189.667" stroke="#A0A0A0" stroke-width="2" stroke-linecap="round" stroke-linejoin="round"/>
<path d="M253.627 164.627L255.52 166.52" stroke="#A0A0A0" stroke-width="2" stroke-linecap="round" stroke-linejoin="round"/>
<path d="M272.48 183.48L274.373 185.373" stroke="#A0A0A0" stroke-width="2" stroke-linecap="round" stroke-linejoin="round"/>
<path d="M249.333 175H252" stroke="#A0A0A0" stroke-width="2" stroke-linecap="round" stroke-linejoin="round"/>
<path d="M276 175H278.667" stroke="#A0A0A0" stroke-width="2" stroke-linecap="round" stroke-linejoin="round"/>
<path d="M253.627 185.373L255.52 183.48" stroke="#A0A0A0" stroke-width="2" stroke-linecap="round" stroke-linejoin="round"/>
<path d="M272.48 166.52L274.373 164.627" stroke="#A0A0A0" stroke-width="2" stroke-linecap="round" stroke-linejoin="round"/>
<defs>
<filter id="filter0_d_3_2" x="317" y="204" width="426" height="15" filterUnits="userSpaceOnUse" color-interpolation-filters="sRGB">
<feFlood flood-opacity="0" result="BackgroundImageFix"/>
<feColorMatrix in="SourceAlpha" type="matrix" values="0 0 0 0 0 0 0 0 0 0 0 0 0 0 0 0 0 0 127 0" result="hardAlpha"/>
<feOffset dy="4"/>
<feGaussianBlur stdDeviation="2"/>
<feComposite in2="hardAlpha" operator="out"/>
<feColorMatrix type="matrix" values="0 0 0 0 0 0 0 0 0 0 0 0 0 0 0 0 0 0 0.25 0"/>
<feBlend mode="normal" in2="BackgroundImageFix" result="effect1_dropShadow_3_2"/>
<feBlend mode="normal" in="SourceGraphic" in2="effect1_dropShadow_3_2" result="shape"/>
</filter>
<linearGradient id="paint0_linear_3_2" x1="321" y1="208" x2="739" y2="208" gradientUnits="userSpaceOnUse">
<stop stop-color="#9D7B7D"/>
<stop offset="0.2" stop-color="#7B9D7C"/>
<stop offset="0.4" stop-color="#B7976A"/>
<stop offset="0.6" stop-color="#687589"/>
<stop offset="0.8" stop-color="#937193"/>
<stop offset="1" stop-color="#628483"/>
</linearGradient>
</defs>
</svg>
